<svg width="119" height="40" viewBox="0 0 119 40" fill="none" xmlns="http://www.w3.org/2000/svg">
<path fill-rule="evenodd" clip-rule="evenodd" d="M21.7854 38.7332V32.2817C21.5434 32.2639 21.3091 32.2441 21.0813 32.2249C20.2461 32.1543 19.4975 32.0913 18.7748 32.1567C11.8336 32.7395 7.35947 27.2871 7.56854 21.002C7.65814 16.8401 7.64108 12.678 7.62402 8.51587C7.61719 6.85083 7.61035 5.18579 7.61035 3.52075V0.440674H0.878264C0.878264 2.94019 0.830168 5.41992 0.782378 7.88452C0.67578 13.3818 0.570647 18.8044 1.00369 24.207C1.75635 33.7385 10.7882 40.8142 21.7854 38.7332ZM118.585 23.5828C114.486 24.3115 110.397 25.04 106.308 25.7688C102.222 26.4968 98.1362 27.2249 94.0399 27.9529C96.5488 33.5303 102.737 34.7373 111.1 31.2827C112.229 32.6147 113.442 34.0715 114.822 35.7363C111.644 38.1504 107.797 39.2742 103.574 39.4407C94.6671 39.7737 87.1824 33.905 85.8861 25.5388C84.4644 16.3821 89.2313 8.72363 97.8032 6.35107C108.675 3.396 119.756 12.303 118.585 23.5828ZM101.294 20.7695L101.497 20.7344C104.79 20.1611 108.076 19.5886 111.351 19.0042C110.138 13.7598 105.664 11.3875 99.7685 12.3447C95.4198 13.0938 92.6601 17.0481 93.0782 22.2092C94.4342 21.9688 95.7903 21.7302 97.1458 21.4929C98.5291 21.251 99.9118 21.0103 101.294 20.7695ZM59.5431 12.8025C59.7977 12.4478 60.0368 12.1238 60.2603 11.812C60.404 11.6116 60.5413 11.4163 60.6721 11.2209C63.6409 6.68408 67.9896 5.2688 73.1328 6.05981C78.0669 6.80884 80.8684 10.0139 82.3319 14.5508C82.6246 15.3831 82.9173 16.2571 82.9173 17.1313C82.9591 24.2485 82.9591 31.366 82.9591 38.7332H76.5197L76.4846 38.3206C76.4142 37.499 76.3525 36.7788 76.3525 36.0278C76.3316 33.5928 76.3211 31.1685 76.3107 28.7439C76.3002 26.3193 76.2898 23.895 76.2689 21.46C76.2689 20.2112 76.1852 19.0042 75.9761 17.7556C75.3489 13.9263 73.0073 11.887 69.5786 12.0532C66.1916 12.2197 63.6409 14.5508 63.4319 18.1301C63.2494 21.3997 63.2439 24.6689 63.2383 27.9382C63.2363 29.1641 63.2342 30.3899 63.2228 31.6157C63.1953 33.123 63.204 34.6121 63.2131 36.1782L63.2196 37.3813C63.2215 37.8103 63.2228 38.2466 63.2228 38.6917H56.2398L56.2136 38.356C56.1396 37.4092 56.0725 36.552 56.0725 35.6948C56.0725 35.1743 56.0734 34.6538 56.0747 34.1333C56.0767 33.3533 56.0798 32.5732 56.083 31.7932C56.0987 27.8909 56.1143 23.9888 55.9889 20.0864C55.9471 18.3799 55.6126 16.5068 54.8181 15.0085C53.48 12.4695 50.4694 11.5122 47.6678 12.2197C45.2426 12.8442 43.361 15.0085 43.2773 17.8804C43.1101 21.7654 43.0543 25.6504 42.9986 29.5354C42.9707 31.4775 42.9428 33.4197 42.901 35.3618C42.901 36.2502 42.8401 37.1387 42.7702 38.1565L42.7338 38.6917H36.1689C36.1506 38.2346 36.1161 37.8179 36.0832 37.4202L36.083 37.418C36.041 36.9109 36.0017 36.4343 36.0017 35.9446C36.0017 35.1833 36.0008 34.4221 35.9995 33.6611L35.9964 32.0417C35.9886 28.1399 35.9807 24.238 36.0435 20.3362C36.0853 18.6714 36.2107 16.9648 36.6289 15.3416C37.8833 10.5549 40.6012 7.01709 45.7444 6.05981C51.0966 5.10254 55.5708 6.55933 58.665 11.3042C58.8703 11.8354 59.1562 12.2463 59.5227 12.7732L59.5431 12.8025ZM25.5063 19.0042H32.0294V38.8997H25.5063V19.0042ZM23.7085 10.3467C23.6667 13.177 25.5065 14.8418 28.6844 14.925C31.9877 15.0083 33.9948 13.3018 34.0784 10.4714C34.1202 7.72437 32.1549 5.93481 29.0607 5.85156C25.7992 5.76831 23.7503 7.51636 23.7085 10.3467Z" fill="white"/>
</svg>
