<svg width="213" height="62" viewBox="0 0 213 62" fill="none" xmlns="http://www.w3.org/2000/svg">
<path d="M56.7122 12.5271C57.5194 12.5271 58.0814 12.6322 58.3982 12.8439C58.715 13.0541 58.8734 13.4059 58.8734 13.8978C58.8734 14.7416 58.4165 17.7481 57.5026 22.9157C56.6924 27.8731 56.2187 30.8095 56.0771 31.7234C54.7764 40.758 52.9823 47.9131 50.6978 53.1874C48.4117 58.4616 45.3702 61.098 41.5733 61.098C39.7807 61.098 38.3201 60.5436 37.1946 59.4364C36.0691 58.3291 35.5071 56.8792 35.5071 55.0851C35.5071 53.4326 35.8848 51.7451 36.6417 50.0225C37.3972 48.3 38.8029 46.3216 40.862 44.0903C42.9197 41.8576 45.8286 39.2989 49.5905 36.4173L49.7489 35.2035C49.9941 33.9028 50.2774 32.0401 50.5927 29.614C49.889 32.1452 48.9052 34.0703 47.6395 35.3878C46.3739 36.7067 45.0382 37.3662 43.6324 37.3662C42.05 37.3662 40.757 36.6366 39.7563 35.1776C39.6428 35.0124 39.5358 34.8425 39.4352 34.6681C39.0384 34.9888 38.6329 35.2905 38.2211 35.5736C36.4803 36.7691 34.5019 37.3662 32.2874 37.3662C30.4933 37.3662 29.1393 36.8483 28.2255 35.8096C27.3102 34.774 26.8532 33.2708 26.8532 31.3015C26.8532 30.3176 27.0985 28.5585 27.5919 26.0272C28.0488 23.8128 28.2773 22.2836 28.2773 21.4399C28.2773 20.8779 28.0839 20.5961 27.697 20.5961C27.2401 20.5961 26.5898 21.184 25.746 22.3628C24.9022 23.5401 24.0585 25.0967 23.2132 27.0294C22.3695 28.9636 21.6841 31.003 21.1571 33.1474C20.7703 34.8349 20.321 35.9604 19.8123 36.5224C19.3021 37.0844 18.4842 37.3662 17.3602 37.3662C16.1997 37.3662 15.33 36.8118 14.7497 35.7045C14.1695 34.5973 13.8801 33.2525 13.8801 31.6701C13.8801 30.3344 14.0552 28.4001 14.4071 25.8688C14.6888 23.6193 14.8289 22.1435 14.8289 21.4399C14.8289 20.8779 14.6355 20.5961 14.2487 20.5961C13.7217 20.5961 13.0531 21.2282 12.2444 22.4938C11.4356 23.7594 10.6574 25.3769 9.90043 27.3462C9.14349 29.3155 8.53732 31.2482 8.08041 33.1474C7.69356 34.7999 7.24579 35.9162 6.73558 36.4965C6.22537 37.0753 5.42425 37.3662 4.33529 37.3662C2.99959 37.3662 2.05989 36.6625 1.51464 35.2568C0.969399 33.851 0.696777 31.6 0.696777 28.5067C0.696777 23.9361 1.34711 19.594 2.64778 15.4803C2.96456 14.4598 3.48239 13.7136 4.20279 13.2384C4.9247 12.7647 5.93599 12.5271 7.23666 12.5271C7.93877 12.5271 8.43223 12.6155 8.71399 12.7906C8.99423 12.9673 9.13587 13.3008 9.13587 13.7928C9.13587 14.3548 8.87239 15.6204 8.3439 17.5897C7.99208 18.9969 7.71032 20.2184 7.50014 21.2541C7.28996 22.2928 7.11329 23.5843 6.97317 25.1317C7.92202 22.3887 9.05667 20.0676 10.3741 18.1699C11.693 16.2707 13.047 14.8558 14.436 13.9237C15.825 12.9932 17.1333 12.5271 18.3654 12.5271C19.596 12.5271 20.4657 12.8089 20.9759 13.3709C21.4861 13.9329 21.7404 14.7949 21.7404 15.9555C21.7404 17.081 21.4054 19.1188 20.7383 22.0719C20.4565 23.3376 20.2631 24.2864 20.158 24.92C21.9156 20.5961 23.8681 17.4495 26.0125 15.4803C28.157 13.511 30.1613 12.5271 32.0254 12.5271C34.31 12.5271 35.4538 13.6694 35.4538 15.9555C35.4538 17.3262 35.0669 19.8041 34.2932 23.3909C33.6246 26.4491 33.2911 28.4717 33.2911 29.4556C33.2911 30.8613 33.7998 31.565 34.8202 31.565C35.5223 31.565 36.3569 31.1355 37.3256 30.2734C37.6074 30.0218 37.9171 29.7247 38.2547 29.3819L38.2531 29.7191C38.2531 27.0827 38.4282 24.6656 38.7801 22.4679C39.1304 20.2702 39.7106 17.9415 40.5209 15.4803C40.8712 14.4248 41.3646 13.6694 41.9982 13.2125C42.6318 12.7556 43.634 12.5271 45.0047 12.5271C45.7784 12.5271 46.3145 12.6505 46.6145 12.8957C46.913 13.1424 47.0623 13.511 47.0623 14.0029C47.0623 14.2847 46.8689 15.2351 46.482 16.851C46.1302 18.1517 45.8484 19.3305 45.6383 20.3844C45.3565 21.8267 45.1113 23.2066 44.8996 24.524C44.6894 25.8429 44.5828 26.9243 44.5828 27.7681C44.5828 29.1038 44.9514 29.7724 45.69 29.7724C46.2185 29.7724 46.8765 29.2439 47.6685 28.1899C48.4589 27.1345 49.3042 25.5353 50.1997 23.3909C51.0968 21.2465 51.9664 18.6101 52.8102 15.4803C53.092 14.4248 53.5214 13.6694 54.1017 13.2125C54.682 12.7556 55.5532 12.5271 56.7122 12.5271ZM48.3767 42.7455C45.6687 45.03 43.7086 47.1135 42.4947 48.9945C41.2824 50.8754 40.6762 52.5188 40.6762 53.926C40.6762 54.5231 40.7905 55.015 41.0189 55.4019C41.2458 55.7887 41.6251 55.9821 42.1521 55.9821C43.0308 55.9821 44.0162 54.9617 45.1067 52.9239C46.1957 50.8846 47.2862 47.4913 48.3767 42.7455ZM101.594 10.1542C108.979 10.1542 112.67 14.1796 112.67 22.2303L112.301 26.344H95.9499C95.9834 28.5235 96.4586 30.1242 97.374 31.1431C98.2893 32.1635 99.9936 32.6722 102.49 32.6722C104.988 32.6722 107.554 32.5671 110.192 32.3554L111.669 32.197L111.774 36.4691C107.766 37.2778 104.214 37.683 101.119 37.683C97.2156 37.683 94.4117 36.6108 92.7074 34.4648C91.0016 32.3219 90.1487 28.8936 90.1487 24.1813C90.1487 14.8299 93.9639 10.1542 101.594 10.1542ZM179.127 10.1542C186.512 10.1542 190.202 14.1796 190.202 22.2303L189.834 26.344H173.484C173.518 28.5235 173.993 30.1242 174.908 31.1431C175.822 32.1635 177.526 32.6722 180.024 32.6722C182.52 32.6722 185.087 32.5671 187.725 32.3554L189.202 32.197L189.307 36.4691C185.298 37.2778 181.747 37.683 178.652 37.683C174.748 37.683 171.944 36.6108 170.24 34.4648C168.534 32.3219 167.681 28.8936 167.681 24.1813C167.681 14.8299 171.497 10.1542 179.127 10.1542ZM201.596 10.206C203.846 10.206 206.607 10.4878 209.877 11.0498L211.513 11.3666L211.406 16.1656C207.256 15.6036 204.251 15.3219 202.387 15.3219C200.523 15.3219 199.231 15.5412 198.511 15.9813C197.789 16.4215 197.429 17.1145 197.429 18.0648C197.429 19.0137 197.824 19.6823 198.616 20.0676C199.408 20.456 201.27 20.9038 204.207 21.4125C207.142 21.9227 209.225 22.7238 210.457 23.8128C211.688 24.9032 212.303 26.836 212.303 29.614C212.303 32.392 211.415 34.4313 209.639 35.7304C207.863 37.0326 205.27 37.683 201.86 37.683C199.715 37.683 197.007 37.3829 193.737 36.7859L192.102 36.5224L192.313 31.7234C196.534 32.2854 199.574 32.5671 201.438 32.5671C203.302 32.5671 204.629 32.3387 205.421 31.8818C206.213 31.4248 206.607 30.6679 206.607 29.614C206.607 28.5585 206.229 27.829 205.472 27.4254C204.715 27.0218 202.906 26.5816 200.041 26.1064C197.175 25.6312 195.073 24.885 193.737 23.8661C192.402 22.8456 191.733 20.983 191.733 18.275C191.733 15.5686 192.656 13.546 194.502 12.2103C196.348 10.8746 198.713 10.206 201.596 10.206ZM158.399 10.1542C160.261 10.1542 162.461 10.3995 164.992 10.8914L166.311 11.1564L166.099 15.6905C163.321 15.4102 161.265 15.2686 159.928 15.2686C157.256 15.2686 155.462 15.8671 154.548 17.0627C153.635 18.2583 153.178 20.5078 153.178 23.8128C153.178 27.1177 153.618 29.4023 154.497 30.6679C155.375 31.9335 157.205 32.5671 159.983 32.5671L166.152 32.1452L166.311 36.7326C162.759 37.3662 160.088 37.683 158.294 37.683C154.285 37.683 151.463 36.6016 149.827 34.4389C148.193 32.2762 147.375 28.7352 147.375 23.8128C147.375 18.8903 148.235 15.3828 149.96 13.2917C151.682 11.2006 154.495 10.1542 158.399 10.1542ZM73.4289 0.978009C78.9834 0.978009 82.7818 2.38376 84.8212 5.19679C86.8605 8.00983 87.8809 12.4205 87.8809 18.4334C87.8809 21.4917 87.6784 24.0854 87.2748 26.2115C86.8697 28.3392 86.1584 30.2643 85.1395 31.9868C83.1337 35.3969 79.2301 37.1027 73.4289 37.1027H60.9279V0.978009H73.4289ZM118.736 10.733L123.798 32.197H125.488L130.762 10.733H136.616L129.76 37.1027H119.526L112.723 10.733H118.736ZM144.212 10.733V37.1027H138.462V10.733H144.212ZM73.4289 6.09233H66.7824V31.9335H73.4289C76.909 31.9335 79.2301 30.6511 80.3907 28.0848C80.9527 26.7842 81.3304 25.3952 81.5253 23.9178C81.7188 22.4405 81.8147 20.6129 81.8147 18.4334C81.8147 14.0745 81.2695 10.9279 80.1805 8.9937C79.09 7.06098 76.839 6.09233 73.4289 6.09233ZM101.594 14.9C99.625 14.9 98.1934 15.4452 97.2963 16.5342C96.3992 17.6247 95.9317 19.4173 95.8982 21.9135H107.027C107.027 19.3122 106.614 17.4937 105.787 16.455C104.96 15.4194 103.564 14.9 101.594 14.9ZM179.127 14.9C177.158 14.9 175.726 15.4452 174.829 16.5342C173.932 17.6247 173.464 19.4173 173.431 21.9135H184.56C184.56 19.3122 184.147 17.4937 183.32 16.455C182.494 15.4194 181.096 14.9 179.127 14.9ZM144.212 0.186035V6.25073H138.462V0.186035H144.212Z" fill="white"/>
</svg>
