<?xml version="1.0" encoding="UTF-8"?>
<svg width="194px" height="58px" viewBox="0 0 194 58" version="1.1" xmlns="http://www.w3.org/2000/svg" xmlns:xlink="http://www.w3.org/1999/xlink">
    <!-- Generator: Sketch 54.1 (76490) - https://sketchapp.com -->
    <title>playstore</title>
    <desc>Created with Sketch.</desc>
    <defs>
        <linearGradient x1="50%" y1="0%" x2="50%" y2="38.9125982%" id="linearGradient-1">
            <stop stop-color="#FBDA09" offset="0%"></stop>
            <stop stop-color="#FFBC00" offset="100%"></stop>
        </linearGradient>
        <path d="M7.02005125,8.28802677 C10.7376817,1.67566761 16.7632923,1.67220502 20.4829775,8.28802677 L25.9618155,18.0326727 C29.6795539,24.6450318 26.5435628,30.005408 18.9630481,30.005408 L8.54033527,30.005408 C0.957284366,30.005408 -2.1782048,24.6484944 1.5413724,18.0326727 L7.02005125,8.28802677 Z" id="path-2"></path>
        <linearGradient x1="37.5156385%" y1="58.4755255%" x2="54.8205829%" y2="39.0830098%" id="linearGradient-4">
            <stop stop-color="#01E2FF" offset="0%"></stop>
            <stop stop-color="#01C4FF" offset="100%"></stop>
        </linearGradient>
        <linearGradient x1="20.2810876%" y1="32.4326425%" x2="83.820166%" y2="69.7551608%" id="linearGradient-5">
            <stop stop-color="#28D781" offset="0%"></stop>
            <stop stop-color="#02F076" offset="100%"></stop>
        </linearGradient>
        <linearGradient x1="74.4881466%" y1="35.169065%" x2="10.1079427%" y2="68.7533544%" id="linearGradient-6">
            <stop stop-color="#F2414E" offset="0%"></stop>
            <stop stop-color="#E02554" offset="100%"></stop>
        </linearGradient>
    </defs>
    <g id="Page-2" stroke="none" stroke-width="1" fill="none" fill-rule="evenodd">
        <g id="Desktop-HD-Copy-5" transform="translate(-1246.000000, -530.000000)">
            <g id="playstore" transform="translate(1246.673759, 530.357000)">
                <path d="M0.75,9.70197804 L0.75,47.1938776 C0.75,52.1379875 4.75762509,56.1458556 9.70132766,56.1458556 L182.932763,56.1458556 C187.875378,56.1458556 191.884091,52.1373427 191.884091,47.1938776 L191.884091,9.70197804 C191.884091,4.75786815 187.876466,0.75 182.932763,0.75 L9.70132766,0.75 C4.75871308,0.75 0.75,4.7585129 0.75,9.70197804 Z" id="background" stroke="#FFFFFF" stroke-width="1.5"></path>
                <g id="get-it-on" transform="translate(59.072727, 9.586364)" fill="#FFFFFF">
                    <path d="M43.0090909,9.32727273 C40.4334357,9.32727273 38.3454545,7.23929161 38.3454545,4.66363636 C38.3454545,2.08798112 40.4334357,0 43.0090909,0 C45.5847462,0 47.6727273,2.08798112 47.6727273,4.66363636 C47.6727273,7.23929161 45.5847462,9.32727273 43.0090909,9.32727273 Z M43.0090909,7.90227273 C44.7977404,7.90227273 46.2477273,6.45228584 46.2477273,4.66363636 C46.2477273,2.87498689 44.7977404,1.425 43.0090909,1.425 C41.2204414,1.425 39.7704545,2.87498689 39.7704545,4.66363636 C39.7704545,6.45228584 41.2204414,7.90227273 43.0090909,7.90227273 Z" id="o"></path>
                    <path d="M11.4,5.18181818 L11.4,8.03181818 L15.1568182,8.03181818 L15.1568182,9.06818182 L11.4,9.06818182 L9.975,9.06818182 L9.975,0.518181818 L9.975,0.388636364 L15.1568182,0.388636364 L15.1568182,1.425 L11.4,1.425 L11.4,4.14545455 L14.7681818,4.14545455 L14.7681818,5.18181818 L11.4,5.18181818 Z" id="e"></path>
                    <path d="M20.2090909,1.425 L20.2090909,9.06818182 L18.7840909,9.06818182 L18.7840909,1.425 L16.5818182,1.425 L16.5818182,0.388636364 L22.4113636,0.388636364 L22.4113636,1.425 L20.2090909,1.425 Z" id="t"></path>
                    <path d="M32.9045455,1.425 L32.9045455,9.06818182 L31.4795455,9.06818182 L31.4795455,1.425 L29.2772727,1.425 L29.2772727,0.388636364 L35.1068182,0.388636364 L35.1068182,1.425 L32.9045455,1.425 Z" id="t"></path>
                    <rect id="i" x="26.5568182" y="0.388636364" width="1.425" height="8.67954545"></rect>
                    <path d="M50.2636364,0.388636364 L50.5227273,0.388636364 L54.4090909,6.73952328 L54.4090909,0.388636364 L55.8340909,0.388636364 L55.8340909,9.06818182 L54.4090909,9.06818182 L50.2636364,2.29390244 L50.2636364,9.06818182 L48.8386364,9.06818182 L48.8386364,0.388636364 L50.2636364,0.388636364 Z" id="n"></path>
                    <g id="g" transform="translate(0.000000, 0.129545)">
                        <polygon id="Rectangle-1" points="4.63555892 4.16749169 8.53715434 4.16749169 8.49852468 5.40230404 4.63555892 5.40230404"></polygon>
                        <path d="M7.7693828,1.26210031 L6.87658851,2.15392919 C6.31972592,1.58518922 5.52881497,1.27340024 4.61624409,1.27340024 C2.79213828,1.27340024 1.31340836,2.75053116 1.31340836,4.57266449 C1.31340836,6.39479783 2.79213828,7.87192875 4.61624409,7.87192875 C6.44034989,7.87192875 7.73543804,6.81852468 7.7327219,4.57266449 C7.73580702,4.4338718 7.73257146,4.29876913 7.72329232,4.16749169 L8.86297346,4.16749169 C8.86310276,4.1827602 8.86316752,4.19805975 8.86316752,4.21339017 C9.29186618,7.35785068 7.14799563,9.16846664 4.57761443,9.14532899 C2.04947023,9.14170787 0,7.09807736 0,4.57266449 C0,2.04725163 2.04946779,0 4.57761443,0 C5.89908891,0 7.00998149,0.461189746 7.7693828,1.26210031 Z" id="Oval-1"></path>
                    </g>
                </g>
                <g id="googleplay" transform="translate(58.425000, 24.872727)" fill="#FFFFFF">
                    <g id="big-P" transform="translate(80.836364, 0.647727)">
                        <path d="M0.647727273,4.55305866e-07 L7.99203394,0 C7.99203394,0 12.2199488,0.719331499 12.2199485,5.57431483 C12.2199482,10.4292982 7.99203394,11.1486297 7.99203394,11.1486297 L0.647727273,11.1486301 L0.647727273,4.55305866e-07 Z M2.07272727,2.69673642 L2.07272727,8.67954545 L7.05840146,8.67954545 C7.05840146,8.67954545 9.32727273,8.67954545 9.32727273,5.68814094 C9.32727273,2.69673642 7.05840146,2.69673642 7.05840146,2.69673642 L2.07272727,2.69673642 Z" id="Combined-Shape"></path>
                        <rect id="Rectangle-6" x="0" y="0" width="2.59090909" height="18.1363636"></rect>
                    </g>
                    <rect id="y" x="94.5681818" y="0.647727273" width="2.59090909" height="18.1363636"></rect>
                    <path d="M106.762039,17.4873582 C106.048411,18.0761534 104.907499,18.6303076 103.105542,18.7428489 C98.9773566,19.000675 98.9752058,15.233609 98.9752058,14.9795787 C98.9752058,14.7255485 98.7715892,11.6534613 102.055453,11.1651356 C104.380751,10.819353 106.009374,11.3954933 106.762039,11.7613088 L106.762039,11.2284306 C106.577465,10.5226892 106.004686,9.22593883 104.287518,9.22593883 C101.928385,9.22593883 101.407409,10.5014049 101.407409,10.5014049 L99.249288,9.22593883 C99.249288,9.22593883 100.456934,6.73636363 104.080549,6.73636364 C108.586164,6.73636364 109.353217,9.84407876 109.353217,10.8907529 C109.353217,10.8958476 109.353127,10.9009094 109.352948,10.9059384 L109.352948,18.7782715 L106.762039,18.7782715 L106.762039,17.4873582 Z M106.576956,13.6026523 C106.576956,13.6026523 101.585534,12.2572899 101.412027,15.061367 C101.238519,17.865444 106.200591,16.5190064 106.643942,14.53123 C106.643942,13.8991266 106.576956,13.6026523 106.576956,13.6026523 Z" id="a"></path>
                    <path d="M114.214612,18.0959999 L109.595455,7.125 L112.186364,7.125 L115.510067,15.0191551 L118.807351,7.18774858 L121.39826,7.18774858 L114.388636,23.8363636 L111.797727,23.8363636 L114.214612,18.0959999 Z" id="y"></path>
                    <path d="M75.0360109,11.36446 L66.8417472,14.7509716 C66.8417472,14.7509716 67.370963,16.6240459 69.8346272,16.6366 C71.7637681,16.6464303 72.8527791,14.9266913 72.8527791,14.9266913 L74.9317738,16.3346481 C74.9317738,16.3346481 73.2541391,19.0478949 69.8182516,19.0478949 C65.5960196,19.0478949 63.7363636,15.3558966 63.7363636,12.9581911 C63.7363636,10.6480637 65.2124522,6.73636364 69.5562417,6.73636364 C73.9000313,6.73636364 75.0360109,11.36446 75.0360109,11.36446 Z M71.9182668,10.4051107 C71.9182668,10.4051107 70.8873147,8.83654263 69.3061987,9.12582124 C65.9616367,9.73773732 66.3825214,12.6645656 66.3825214,12.6645656 L71.9182668,10.4051107 Z" id="e"></path>
                    <rect id="i" x="59.85" y="0.647727273" width="2.74102614" height="18.098262"></rect>
                    <path d="M55.4635774,7.12969768 L57.997389,7.15158708 L57.997389,18.5710356 C57.997389,21.4886734 56.2603141,24.56852 52.170819,24.56852 C48.0813239,24.56852 46.7605675,20.9451757 46.7605675,20.9451757 L49.0876369,19.9665027 C49.0876369,19.9665027 49.7973782,22.1995673 52.2917466,22.1995643 C55.1322861,22.199561 55.4638923,19.615299 55.4638923,18.7306987 L55.4638923,17.491424 C55.4638923,17.491424 54.4810405,19.0296943 52.039814,19.0296977 C49.3930264,19.0297014 46.2477273,16.7619949 46.2477273,12.8960051 C46.2477273,9.03001519 49.2094306,6.81871236 52.0704396,6.73827564 C54.3620814,6.67384656 55.4635774,8.25913286 55.4635774,8.25913286 L55.4635774,7.12969768 Z M52.2561611,16.7091298 C54.1039205,16.7091298 55.6018254,15.0165307 55.6018254,12.9286039 C55.6018254,10.8406772 54.1039205,9.14807808 52.2561611,9.14807808 C50.4084018,9.14807808 48.9104969,10.8406772 48.9104969,12.9286039 C48.9104969,15.0165307 50.4084018,16.7091298 52.2561611,16.7091298 Z" id="g"></path>
                    <path d="M38.9423088,19.0431818 C35.5361982,19.0431818 32.775,16.2882067 32.775,12.8897727 C32.775,9.49133873 35.5361982,6.73636364 38.9423088,6.73636364 C42.3484194,6.73636364 45.1096176,9.49133873 45.1096176,12.8897727 C45.1096176,16.2882067 42.3484194,19.0431818 38.9423088,19.0431818 Z M38.9019996,16.6300802 C40.8165454,16.6300802 42.3685915,14.9554875 42.3685915,12.8897727 C42.3685915,10.8240579 40.8165454,9.14946524 38.9019996,9.14946524 C36.9874538,9.14946524 35.4354077,10.8240579 35.4354077,12.8897727 C35.4354077,14.9554875 36.9874538,16.6300802 38.9019996,16.6300802 Z" id="o"></path>
                    <path d="M25.599127,19.0431818 C22.1930164,19.0431818 19.4318182,16.2882067 19.4318182,12.8897727 C19.4318182,9.49133873 22.1930164,6.73636364 25.599127,6.73636364 C29.0052376,6.73636364 31.7664358,9.49133873 31.7664358,12.8897727 C31.7664358,16.2882067 29.0052376,19.0431818 25.599127,19.0431818 Z M25.5588178,16.6300802 C27.4733636,16.6300802 29.0254097,14.9554875 29.0254097,12.8897727 C29.0254097,10.8240579 27.4733636,9.14946524 25.5588178,9.14946524 C23.644272,9.14946524 22.0922259,10.8240579 22.0922259,12.8897727 C22.0922259,14.9554875 23.644272,16.6300802 25.5588178,16.6300802 Z" id="o"></path>
                    <g id="big-g">
                        <polygon id="Rectangle-1" points="9.67420991 8.68716578 17.8166699 8.68716578 17.7360515 11.2611408 9.67420991 11.2611408"></polygon>
                        <path d="M16.2143641,2.63085699 L14.3511412,4.48988056 C13.1889932,3.3043381 11.5383965,2.65441176 9.6339007,2.65441176 C5.8270712,2.65441176 2.74102614,5.73350157 2.74102614,9.53175134 C2.74102614,13.3300011 5.8270712,16.4090909 9.6339007,16.4090909 C13.4407302,16.4090909 16.1435229,14.2132627 16.1378544,9.53175134 C16.1442929,9.24243699 16.1375404,8.96081452 16.1181753,8.68716578 L18.4966403,8.68716578 C18.4969101,8.71899309 18.4970453,8.75088512 18.4970453,8.78284148 C19.3917207,15.3374916 14.9175561,19.1117333 9.55328229,19.0635027 C4.27715525,19.0559544 0,14.7959922 0,9.53175134 C0,4.26751043 4.27715017,0 9.55328229,0 C12.3111421,0 14.6295266,0.961353274 16.2143641,2.63085699 Z" id="Oval-1"></path>
                    </g>
                </g>
                <g id="logo_play" transform="translate(14.120455, 12.104545)">
                    <mask id="mask-3" fill="white">
                        <use xlink:href="#path-2"></use>
                    </mask>
                    <use id="yellow" fill="url(#linearGradient-1)" transform="translate(13.751641, 16.279456) rotate(-270.000000) translate(-13.751641, -16.279456) " xlink:href="#path-2"></use>
                    <polygon id="blue" fill="url(#linearGradient-4)" mask="url(#mask-3)" points="-4.41008341e-13 -2.01277462 18.1087503 15.9856686 -0.233901515 34.6954986"></polygon>
                    <polygon id="green" fill="url(#linearGradient-5)" mask="url(#mask-3)" points="-3.72383207 -5.71801358 18.1066012 15.9909332 24.5970434 9.79915913"></polygon>
                    <polygon id="red" fill="url(#linearGradient-6)" mask="url(#mask-3)" points="18.1095749 15.9867914 28.0457912 26.0020321 -1.63771044 36.0172727"></polygon>
                </g>
            </g>
        </g>
    </g>
</svg>