<svg width="428" height="102" viewBox="0 0 428 102" fill="none" xmlns="http://www.w3.org/2000/svg">
<path d="M248.305 2.9878C242.438 2.9878 237.812 4.63985 234.565 7.90298C231.475 11.0064 229.33 15.6666 228.189 21.7628L228.045 22.566L227.649 24.7572H220.284C220.284 24.7572 219.518 24.7258 219.251 25.4898L219.196 25.6979L217.986 32.4208L217.973 32.5902C217.959 33.0797 218.201 33.3973 218.822 33.4531L219.043 33.462H226.213L218.939 73.9283L218.781 74.8027C218.25 77.6693 217.651 80.0528 216.995 81.8993C216.283 83.9039 215.588 85.4063 214.733 86.4967C213.904 87.5522 213.118 88.3291 211.763 88.782C210.644 89.1571 209.357 89.3293 207.946 89.3293C207.16 89.3293 206.115 89.1981 205.344 89.0444C204.573 88.8927 204.172 88.7206 203.594 88.4787C203.594 88.4787 202.753 88.159 202.422 88.9993C202.152 89.6859 200.242 94.9228 200.015 95.5705C199.785 96.21 200.108 96.7142 200.515 96.8597C201.47 97.2 202.179 97.4172 203.479 97.7226C205.285 98.1469 206.807 98.1735 208.232 98.1735C211.218 98.1735 213.939 97.7554 216.195 96.9438C218.466 96.1259 220.442 94.7014 222.19 92.7727C224.08 90.6923 225.269 88.5135 226.406 85.5415C227.445 82.8228 228.341 79.498 229.076 75.651L229.257 74.6784L236.566 33.462H247.27C247.387 33.4606 248.045 33.4211 248.286 32.7272L248.34 32.5212L249.55 25.7985L249.564 25.6289C249.578 25.1346 249.331 24.8155 248.694 24.7644L248.491 24.7572H238.119L238.127 24.7105C238.211 24.2208 238.691 20.7448 239.832 17.4644C240.34 16.0031 241.296 14.8246 242.107 14.015C242.863 13.2439 243.795 12.6658 244.824 12.3301C245.951 11.9829 247.126 11.814 248.305 11.83C249.282 11.83 250.241 11.9468 250.971 12.0986C251.976 12.3118 252.367 12.4244 252.63 12.5024C253.606 12.7993 253.802 12.5568 253.99 12.1163L254.037 12.0023L256.518 5.21376L256.569 5.00737C256.652 4.42483 256.128 4.1676 255.921 4.08641C254.869 3.76937 253.798 3.51627 252.715 3.32802C251.258 3.08588 249.783 2.97182 248.305 2.9878ZM191.851 23.6093L190.703 23.6135L190.123 23.6199C180.109 23.8449 173.111 29.8929 172.864 38.5365L172.858 39.0105V39.2052L172.868 39.7818C173.181 48.7077 180.804 51.7873 188.106 53.897L188.535 54.0201L189.751 54.3971L190.266 54.5548C195.408 56.1303 199.772 57.5761 200.032 61.0824L200.044 61.4172V61.6099L200.034 61.9613C199.842 65.2198 196.971 67.6298 192.417 67.7819L191.956 67.7895L191.557 67.7882C189.266 67.7703 183.433 67.5017 177.164 63.5488C176.356 63.0795 175.883 62.7556 175.27 62.362C175.076 62.2396 174.219 61.9029 173.837 62.6918L173.763 62.8786L171.494 69.1444C171.142 70.0586 171.62 70.2491 171.737 70.411C172.784 71.1694 173.853 71.7187 174.929 72.3357C180.638 75.3466 186.032 76.23 191.666 76.23C202.95 76.23 210.035 70.3545 210.276 60.8527L210.282 60.3493V60.1567L210.272 59.5979C209.954 51.1332 202.387 47.8864 195.129 45.5705L194.685 45.4299L193.7 45.1123L193.169 44.9402C187.872 43.2236 183.376 41.6599 183.108 38.2662L183.095 37.9426V37.752L183.106 37.424C183.296 34.3931 186.122 32.2015 190.419 32.2015C195.363 32.2015 201.223 33.8392 205.003 35.9196C205.003 35.9196 206.117 36.6369 206.525 35.565C206.743 34.9848 208.655 29.8566 208.857 29.3012C209.077 28.7007 208.692 28.2477 208.302 28.014C203.983 25.3925 198.023 23.6093 191.851 23.6093ZM23.7596 23.6093L22.614 23.6135L22.0335 23.6199C12.0175 23.8449 5.01997 29.8929 4.77326 38.5365L4.76652 39.0105V39.2052L4.77656 39.7818C5.09056 48.7077 12.7144 51.7873 20.0152 53.897L20.4443 54.0201L21.6618 54.3971L22.1772 54.5548C27.3167 56.1303 31.6812 57.5761 31.941 61.0824L31.9532 61.4172V61.6099L31.9429 61.9613C31.7509 65.2198 28.8817 67.6298 24.3238 67.7819L23.8624 67.7895L23.4646 67.7882C21.1764 67.7703 15.3444 67.5017 9.07312 63.5488C8.26487 63.0795 7.80417 62.7412 7.18101 62.362C6.8739 62.1764 6.1368 61.8517 5.74892 62.6825L5.67144 62.8786L3.40503 69.1444C3.05334 70.0586 3.53048 70.2491 3.6436 70.411C4.69453 71.1694 5.76193 71.7187 6.83961 72.3357C12.5468 75.3466 17.9413 76.23 23.5765 76.23C34.8608 76.23 41.9439 70.3545 42.1848 60.8527L42.1912 60.3493V60.1567L42.1807 59.5979C41.8624 51.1332 34.2941 47.8864 27.0374 45.5705L26.5936 45.4299L25.6085 45.1123L25.0774 44.9402C19.7811 43.2236 15.2866 41.6599 15.0191 38.2662L15.0065 37.9426V37.752L15.0167 37.424C15.2064 34.3931 18.031 32.2015 22.3261 32.2015C27.2723 32.2015 33.1337 33.8392 36.9138 35.9196C36.9138 35.9196 38.0285 36.6369 38.4337 35.565C38.6537 34.9848 40.5644 29.8566 40.768 29.3012C40.986 28.7007 40.6034 28.2477 40.2106 28.014C35.8937 25.3925 29.9315 23.6093 23.7596 23.6093ZM144.137 23.7589C140.087 23.7589 136.408 24.4415 133.424 25.8353C130.435 27.2332 127.924 29.1433 125.952 31.5169C123.984 33.8884 122.505 36.7107 121.557 39.9122C120.613 43.0954 120.138 46.5655 120.138 50.2303C120.138 53.9565 120.629 57.4307 121.61 60.5542C122.593 63.7046 124.177 66.4696 126.308 68.7713C128.442 71.0812 131.186 72.8931 134.466 74.1557C137.732 75.4163 141.693 76.0702 146.245 76.0564C155.617 76.0249 160.549 73.9427 162.585 72.8214C162.915 72.636 163.231 72.3265 162.943 71.4949L162.858 71.2759L160.738 65.3566L160.653 65.1734C160.278 64.5204 159.514 64.7929 159.514 64.7929C157.19 65.6578 153.898 67.2012 146.195 67.1849C141.167 67.1768 137.438 65.6948 135.096 63.3807C132.811 61.121 131.633 57.8509 131.357 53.287L131.324 52.6262L163.763 52.6508L163.783 52.65C163.912 52.6425 164.627 52.5671 164.707 51.8105C164.742 51.4661 165.82 45.1696 163.736 37.8873C162.922 34.825 160.909 31.7321 159.588 30.3179C157.501 28.0756 155.458 26.5055 153.427 25.6386C150.489 24.3948 147.329 23.7555 144.137 23.7589ZM403.968 23.7589C399.919 23.7589 396.239 24.4415 393.255 25.8353C390.267 27.2332 387.756 29.1433 385.788 31.5169C383.815 33.8884 382.336 36.7107 381.393 39.9122C380.446 43.0954 379.969 46.5655 379.969 50.2303C379.969 53.9565 380.465 57.4307 381.44 60.5542C382.425 63.7046 384.007 66.4696 386.141 68.7713C388.274 71.0812 391.02 72.8931 394.3 74.1557C397.564 75.4163 401.529 76.0702 406.076 76.0564C415.451 76.0249 420.38 73.9427 422.416 72.8214C422.749 72.636 423.063 72.3265 422.776 71.4949L422.692 71.2759L420.569 65.3566L420.485 65.1734C420.112 64.5204 419.348 64.7929 419.348 64.7929C417.022 65.6578 413.729 67.2012 406.029 67.1849C400.998 67.1768 397.272 65.6948 394.929 63.3807C392.642 61.121 391.466 57.8509 391.191 53.287L391.157 52.6262L423.595 52.6508L423.615 52.65C423.744 52.6425 424.458 52.5671 424.539 51.8105C424.574 51.4661 425.651 45.1696 423.57 37.8873C422.753 34.825 420.742 31.7321 419.42 30.3179C417.332 28.0756 415.288 26.5055 413.258 25.6386C410.32 24.3941 407.16 23.7548 403.968 23.7589ZM69.8673 23.7119C67.4323 23.7119 63.5206 24.0397 61.1719 24.5091C61.1719 24.5091 54.0888 25.8784 51.1725 28.1555C51.1725 28.1555 50.6333 28.4861 50.8128 29.228L50.8805 29.4406L53.1777 35.5895L53.2587 35.7675C53.5282 36.2386 54.0157 36.1711 54.184 36.1309L54.2431 36.1143C54.2431 36.1143 54.4878 36.0179 54.7757 35.8478C61.0156 32.4659 68.911 32.5663 68.911 32.5663C72.4155 32.5663 75.1159 33.2735 76.9298 34.657C78.6268 35.9553 79.5229 37.8823 79.5947 41.8345L79.5994 42.3616V43.7288L79.2036 43.6726C76.5785 43.3054 74.2542 43.0954 74.2542 43.0954C72.9379 42.999 71.2329 42.9519 69.1887 42.9519C66.4101 42.9519 63.7221 43.2962 61.1986 43.9726C58.6648 44.6532 56.3861 45.7067 54.4261 47.1024C52.4673 48.497 50.8566 50.3215 49.7185 52.4356C48.5688 54.5694 47.9827 57.0761 47.9827 59.886C47.9827 62.7536 48.4824 65.2377 49.4696 67.267C50.4354 69.2788 51.8895 71.0189 53.7001 72.3294C55.5038 73.6371 57.7291 74.5963 60.3101 75.1826C62.8583 75.7627 65.7458 76.0558 68.9007 76.0558C72.2325 76.0558 75.5457 75.777 78.7561 75.238C81.4908 74.7684 84.2151 74.2408 86.9271 73.6556C88.009 73.4076 89.2018 73.0817 89.2018 73.0817C89.858 72.9157 89.9361 72.3134 89.9427 72.0999L89.9422 72.024L89.9237 42.4559L89.9153 41.6859C89.7821 35.5893 88.0511 31.0472 84.7677 28.1821C81.364 25.2122 76.3519 23.7119 69.8673 23.7119ZM273.834 23.759C269.945 23.759 266.488 24.4496 263.557 25.8127C260.629 27.1737 258.153 29.0532 256.197 31.3939C254.247 33.7285 252.776 36.518 251.837 39.6888C250.901 42.8391 250.426 46.2928 250.426 49.9515C250.426 53.6121 250.901 57.0678 251.837 60.214C252.776 63.3828 254.243 66.1744 256.199 68.513C258.155 70.8538 260.637 72.7169 263.562 74.0451C266.494 75.3732 269.949 76.0497 273.834 76.0497C277.721 76.0497 281.173 75.3732 284.103 74.0451C287.032 72.7169 289.51 70.8538 291.47 68.513C293.422 66.1825 294.888 63.387 295.832 60.214C296.766 57.0617 297.241 53.608 297.241 49.9515C297.241 46.2969 296.766 42.8413 295.832 39.6888C294.888 36.514 293.422 33.7203 291.47 31.3898C289.514 29.0532 287.04 27.1737 284.107 25.8127C281.179 24.4496 277.723 23.759 273.834 23.759ZM362.253 23.7119C358.228 23.7119 354.64 24.3984 351.571 25.7595C348.509 27.1184 345.911 28.9958 343.853 31.3303C341.794 33.6691 340.227 36.4626 339.19 39.6315C338.152 42.7838 337.627 46.2436 337.627 49.9125C337.627 57.8343 339.772 64.2354 344.003 68.9251C348.248 73.631 354.615 76.021 362.926 76.021C367.835 76.021 372.872 75.031 376.5 73.6086C376.5 73.6086 377.08 73.3295 376.946 72.6641L376.89 72.4729L374.534 65.9941L374.451 65.8017C374.084 65.1173 373.31 65.4161 373.31 65.4161C371.918 65.9469 370.437 66.4389 368.853 66.6848C367.257 66.9348 365.491 67.0598 363.601 67.0598C358.967 67.0598 355.275 65.6846 352.641 62.9666C349.994 60.2469 348.507 55.8525 348.523 49.9084C348.538 44.5055 349.85 40.435 352.203 37.3317C354.535 34.2491 358.097 32.6667 362.833 32.6667C366.788 32.6667 369.805 33.1239 372.966 34.1117L373.009 34.1269C373.173 34.178 373.769 34.2968 374.077 33.4517C374.918 31.1295 375.539 29.4774 376.436 26.9256C376.691 26.1981 376.066 25.8906 375.837 25.8024C374.595 25.3187 371.66 24.5256 369.445 24.1915C367.374 23.8759 364.954 23.7119 362.253 23.7119ZM110.052 4.03108H101.449C100.965 4.03108 100.605 4.37611 100.531 4.83139L100.517 5.00683V74.0143C100.517 74.5013 100.831 74.907 101.291 74.9833L101.449 74.9962H110.052C110.541 74.9962 110.903 74.6391 110.97 74.1733L110.982 74.0143V5.00683C110.982 4.46776 110.595 4.03108 110.052 4.03108ZM321.639 25.6939C319.782 26.5283 317.741 27.8376 316.462 29.3447L316.158 29.7255L316.154 25.7819L316.14 25.6059C316.075 25.2 315.784 24.8823 315.379 24.8167L315.222 24.8042H306.905L306.731 24.82C306.34 24.8923 306.055 25.2063 305.99 25.6059L305.976 25.7819V74.0143L305.992 74.1906C306.067 74.5974 306.392 74.9167 306.803 74.9833L306.961 74.9962H315.485L315.662 74.98C316.07 74.9055 316.39 74.5807 316.456 74.1714L316.469 74.0143V49.9208L316.474 49.2278C316.521 46.2299 316.877 43.3155 317.54 41.4331C318.243 39.4265 319.2 37.8278 320.384 36.6778C321.507 35.5681 322.881 34.7441 324.391 34.2757C325.806 33.8711 327.27 33.6655 328.742 33.6649C330.439 33.6649 332.307 34.0995 332.307 34.0995C332.932 34.1691 333.28 33.788 333.491 33.2263C334.049 31.7485 335.628 27.3192 335.93 26.4379C336.025 26.2195 336.026 25.9722 335.935 25.7527C335.843 25.5333 335.665 25.3603 335.443 25.2736C334.89 25.0647 332.132 24.4845 330.005 24.3534C325.927 24.0992 323.667 24.7837 321.639 25.6939ZM70.8052 51.0993C73.2633 51.1429 75.7166 51.3236 78.1536 51.6407L79.6137 51.8473V66.5434H79.6179C79.3227 66.6057 75.3285 67.4367 70.8525 67.7054C64.2548 68.1012 61.3241 65.8116 61.3446 65.8177C60.0716 64.8053 59.8947 64.5573 59.4731 63.8993C58.8294 62.9093 58.5003 61.4991 58.5003 59.6935C58.5003 56.8546 59.4464 54.8092 61.396 53.4359C61.3755 53.4399 64.1931 51.0131 70.8052 51.0993ZM273.834 32.5254C278.094 32.5254 281.148 33.9949 283.172 37.0182C285.212 40.066 286.244 44.4214 286.244 49.9515C286.244 55.4855 285.208 59.8553 283.172 62.9359C281.148 65.99 278.094 67.4759 273.834 67.4759C269.575 67.4759 266.538 65.9919 264.547 62.9401C262.537 59.8575 261.517 55.4855 261.517 49.9515C261.517 44.4214 262.537 40.066 264.547 37.0161C266.538 33.9929 269.575 32.5254 273.834 32.5254ZM143.369 32.3265C147.631 32.3265 150.438 33.9949 152.462 37.0182C153.701 38.8739 154.293 41.3021 154.555 44.0174L154.609 44.649L131.47 44.6449L131.593 43.8867C132.073 41.1463 132.885 38.846 134.092 37.0161C136.083 33.9929 139.106 32.3265 143.369 32.3265ZM403.201 32.3265C407.462 32.3265 410.27 33.9949 412.293 37.0182C413.535 38.8739 414.127 41.3021 414.388 44.0174L414.443 44.649L391.303 44.6449L391.426 43.8867C391.906 41.1463 392.717 38.846 393.926 37.0161C395.914 33.9929 398.942 32.3265 403.201 32.3265Z" fill="white"/>
</svg>
