<svg width="83" height="83" viewBox="0 0 83 83" fill="none" xmlns="http://www.w3.org/2000/svg">
<rect x="0.46582" y="0.986328" width="82.0137" height="82.0137" rx="16" fill="#2E2E2E"/>
<path fill-rule="evenodd" clip-rule="evenodd" d="M34.5541 35.075C30.7333 38.8958 30.7333 45.0906 34.5541 48.9114C38.3749 52.7322 44.5697 52.7322 48.3905 48.9114C51.1242 46.1777 55.5564 46.1777 58.29 48.9114C61.0237 51.645 61.0237 56.0772 58.29 58.8109C49.0019 68.099 33.9428 68.099 24.6546 58.8109C15.3665 49.5227 15.3665 34.4636 24.6546 25.1755C33.9428 15.8873 49.0019 15.8873 58.29 25.1755C61.0237 27.9091 61.0237 32.3413 58.29 35.075C55.5564 37.8086 51.1242 37.8086 48.3905 35.075C44.5697 31.2541 38.3749 31.2541 34.5541 35.075Z" fill="#474DFF"/>
</svg>
