<svg width="83" height="83" viewBox="0 0 83 83" fill="none" xmlns="http://www.w3.org/2000/svg">
<rect x="0.455078" y="0.986328" width="82.0137" height="82.0137" rx="16" fill="#2E2E2E"/>
<path d="M25.3119 58.5243C18.7064 58.5243 13.3516 53.1695 13.3516 46.564C13.3516 39.9584 18.7064 34.6036 25.3119 34.6036C26.9391 34.6036 28.4904 34.9285 29.9044 35.517C32.4237 29.6058 38.2874 25.4619 45.1189 25.4619C54.2489 25.4619 61.6501 32.8632 61.6501 41.9931C61.6501 42.9991 61.5603 43.984 61.3882 44.9404C61.818 44.856 62.2621 44.8118 62.7167 44.8118C66.5033 44.8118 69.5729 47.8814 69.5729 51.668C69.5729 55.4546 66.5033 58.5243 62.7167 58.5243C62.3539 58.5243 61.9977 58.4961 61.6501 58.4418V58.5244L25.3119 58.5243Z" fill="#A334FB"/>
</svg>
