<svg width="66" height="42" viewBox="0 0 66 42" fill="none" xmlns="http://www.w3.org/2000/svg">
<path d="M35.6623 17.8734C38.2661 19.3352 38.2661 23.0834 35.6623 24.5452L5.69852 41.3676C3.14834 42.7993 -1.27837e-07 40.9562 0 38.0317L1.47066e-06 4.38689C1.5985e-06 1.4623 3.14835 -0.380726 5.69852 1.051L35.6623 17.8734Z" fill="url(#paint0_linear)"/>
<path d="M63.303 17.8734C65.9067 19.3352 65.9067 23.0834 63.303 24.5452L33.3391 41.3676C30.789 42.7993 27.6406 40.9562 27.6406 38.0317L27.6406 4.38689C27.6406 1.4623 30.789 -0.380726 33.3391 1.051L63.303 17.8734Z" fill="#A334FB"/>
<path d="M35.5668 24.4889C38.1706 23.0271 38.1706 19.279 35.5668 17.8171L27.6406 13.3672L27.6406 28.9389L35.5668 24.4889Z" fill="#B45AFB"/>
<defs>
<linearGradient id="paint0_linear" x1="41.6044" y1="21.2092" x2="-13.8679" y2="21.2092" gradientUnits="userSpaceOnUse">
<stop offset="0.207745" stop-color="#8B2FD5"/>
<stop offset="0.339159" stop-color="#A334FB"/>
</linearGradient>
</defs>
</svg>
