<?xml version="1.0" encoding="UTF-8"?>
<svg width="170px" height="58px" viewBox="0 0 170 58" version="1.1" xmlns="http://www.w3.org/2000/svg" xmlns:xlink="http://www.w3.org/1999/xlink">
    <!-- Generator: Sketch 54.1 (76490) - https://sketchapp.com -->
    <title>appstore</title>
    <desc>Created with Sketch.</desc>
    <g id="Page-2" stroke="none" stroke-width="1" fill="none" fill-rule="evenodd">
        <g id="Desktop-HD-Copy-5" transform="translate(-1056.000000, -530.000000)" fill="#FFFFFF" fill-rule="nonzero">
            <g id="appstore" transform="translate(1056.000000, 530.357000)">
                <g id="Group">
                    <g id="Combined-Shape">
                        <path d="M156.364734,0.134751773 L156.364734,0.134567204 C156.874995,0.134567204 157.393491,0.134567204 157.903752,0.137406721 C158.336352,0.140175249 158.780027,0.148495032 159.212627,0.155423451 C160.164174,0.165997476 161.113491,0.249898108 162.052143,0.406379897 C162.994456,0.566699566 163.907571,0.866732748 164.761326,1.29656824 C166.468873,2.17356049 167.858562,3.56374602 168.734945,5.27160703 C169.163242,6.1225863 169.459621,7.03375628 169.613917,7.97386105 C169.772245,8.91345083 169.860324,9.86353419 169.877424,10.8162168 C169.882961,11.2515714 169.882961,11.6883174 169.882961,12.1236721 C169.894035,12.6380504 169.894035,13.1538202 169.894035,13.6737498 L169.894035,43.387399 C169.894035,43.9115737 169.894035,44.4245323 169.882961,44.9403304 C169.882961,45.3811653 169.882961,45.8082286 169.877424,46.2492054 C169.860321,47.2018408 169.772241,48.1518767 169.613917,49.0914192 C169.46005,50.0320721 169.163653,50.9437645 168.734945,51.7950646 C168.299452,52.6423156 167.73333,53.4157495 167.057358,54.0869801 C166.386424,54.7639905 165.611232,55.3289911 164.761326,55.760449 C163.907574,56.1914328 162.994556,56.493252 162.052143,56.6560325 C161.113329,56.8112425 160.164111,56.8951534 159.212627,56.9070457 C158.780027,56.9167001 158.336352,56.9222371 157.903752,56.9222371 C157.393491,56.9250766 156.874995,56.9250766 156.364734,56.9250766 L13.5369394,56.9250766 C13.0163425,56.9250766 12.5019215,56.9250766 11.9826876,56.9222371 C11.5480286,56.9222371 11.1168339,56.9167001 10.6780008,56.9070457 C9.72471476,56.8944854 8.77370637,56.8105798 7.83294753,56.6560325 C6.8935652,56.4943899 5.98380908,56.1924907 5.13415771,55.760449 C4.28348441,55.3292407 3.50757608,54.7642247 2.83606623,54.0869801 C2.15834585,53.4183681 1.59343081,52.644368 1.16327882,51.7950646 C0.731328991,50.9443834 0.432083441,50.0326181 0.275929991,49.0914192 C0.11785892,48.1520056 0.032797574,47.2017583 0.0215093355,46.2492054 C0.00833398017,45.8082286 0.00694261721,45.3811653 2.13162821e-13,44.9403304 L2.13162821e-13,12.1236721 C0.00694261721,11.6883174 0.00833398017,11.2515714 0.0215093355,10.8162736 C0.0327941135,9.86367347 0.117855458,8.91337876 0.275929991,7.97391784 C0.432515821,7.03326888 0.731743679,6.12202669 1.16327882,5.27166382 C1.59362622,4.41960504 2.15846182,3.64245871 2.83606623,2.97010812 C3.51013192,2.29586149 4.28553905,1.73122962 5.13415771,1.29669602 C5.98381553,0.865807577 6.89366975,0.565694687 7.83294753,0.406507675 C8.77354647,0.250712306 9.72465267,0.166840867 10.6780008,0.155622217 C11.1168339,0.1486796 11.5480286,0.140430806 11.9826876,0.137591289 C12.5019357,0.134751773 13.0163141,0.134751773 13.5369394,0.134751773 L156.364734,0.134751773 Z M11.989616,55.6827883 L156.364734,55.6856278 L157.903752,55.6827883 C158.326556,55.6827883 158.761996,55.6772512 159.177843,55.6675969 C160.066988,55.6567785 160.954073,55.5793745 161.831655,55.4360343 C162.655762,55.2962453 163.454106,55.033098 164.199811,54.6554513 C164.935755,54.2814056 165.606623,53.7912227 166.186621,53.2037486 C166.767698,52.6278467 167.254312,51.9639038 167.628527,51.2363898 C168.004139,50.4900416 168.262719,49.69036 168.395197,48.8653937 C168.540176,47.9953152 168.621272,47.1157912 168.637833,46.233872 C168.64337,45.7985742 168.64337,45.3756283 168.64337,44.9139229 C168.654586,44.4065014 168.654586,43.9031971 168.654586,43.387399 L168.654586,13.6737498 C168.654586,13.1628356 168.654586,12.6560814 168.64337,12.1236721 C168.64337,11.6938545 168.64337,11.2619641 168.639253,10.8598886 C168.622325,9.96194599 168.539855,9.06643788 168.392499,8.18050685 C168.258713,7.36629936 168.00253,6.57701437 167.632644,5.83943929 C166.876299,4.36444256 165.67738,3.16307604 164.203929,2.40372402 C163.456152,2.02816326 162.656631,1.76601846 161.831655,1.62590953 C160.959216,1.48274113 160.077222,1.40557613 159.193176,1.39507106 L157.896795,1.37704013 L11.9903117,1.37704013 L10.7092355,1.39437538 C9.81707489,1.40542973 8.92699516,1.48328934 8.04646495,1.62730089 C7.22975683,1.76567413 6.43848193,2.02600248 5.69915046,2.39956413 C4.96366125,2.77635958 4.29183343,3.2662007 3.70816685,3.85122421 C3.12384351,4.4307415 2.63713657,5.10098596 2.26691359,5.83597508 C1.89102819,6.57867734 1.63083175,7.37445349 1.49533185,8.19575505 C1.3497103,9.07447614 1.27114611,9.96300188 1.26031928,10.8536416 C1.2520137,11.1420371 1.23946304,12.1236721 1.23946304,12.1236721 L1.23946304,44.9208797 C1.23946304,44.9208797 1.25124703,45.9178339 1.2602483,46.2172609 C1.27155578,47.1093137 1.3505795,47.9992204 1.49663802,48.8793074 C1.63188827,49.6983652 1.89188344,50.4918532 2.26756668,51.2321305 C2.63915534,51.9676276 3.12857946,52.637372 3.71644404,53.2148227 C4.29592083,53.7991566 4.96560645,54.2864883 5.69984614,54.6581488 C6.44088072,55.0329145 7.23365386,55.2950923 8.05201621,55.4360343 C8.92966407,55.5786136 9.81666449,55.6560127 10.7057429,55.6675969 C11.1349216,55.6772512 11.5570441,55.6827883 11.989616,55.6827883 Z"></path>
                    </g>
                    <g id="_Group_" transform="translate(14.125341, 12.436079)">
                        <g id="_Group_2">
                            <g id="_Group_3">
                                <path d="M21.0404777,16.5207279 C21.0715094,14.1121496 22.3342223,11.887356 24.3862229,10.625807 C23.0858276,8.76861115 20.9858341,7.63332369 18.7197411,7.56242331 C16.3356265,7.31217674 14.0243312,8.98903886 12.80943,8.98903886 C11.5710176,8.98903886 9.70048626,7.58726907 7.68623282,7.62871181 C5.03600053,7.71433518 2.62516025,9.18461832 1.33576833,11.5016274 C-1.41004388,16.2555739 0.63808499,23.2422746 3.26834308,27.0850061 C4.58431689,28.9666825 6.12231246,31.0685635 8.13474861,30.9940262 C10.1040383,30.9123475 10.8395298,29.7382785 13.2166308,29.7382785 C15.5716688,29.7382785 16.2617139,30.9940262 18.3149822,30.9466346 C20.4281218,30.9123333 21.7595,29.0565958 23.0293033,27.1571014 C23.9748283,25.8163382 24.7024083,24.334503 25.1850924,22.7664853 C22.6753243,21.7049765 21.043407,19.2457468 21.0404777,16.5207279 L21.0404777,16.5207279 Z" id="_Path_"></path>
                                <path d="M17.1622238,5.03518286 C18.3143953,3.65204301 18.8820265,1.87425106 18.7445727,0.0793467707 C16.9843109,0.264228365 15.3583221,1.10551908 14.1905849,2.43559155 C13.0374981,3.74788679 12.453347,5.46472029 12.5667933,7.2079523 C14.3506581,7.22631938 16.0444001,6.42549977 17.1622238,5.03518286 L17.1622238,5.03518286 Z" id="_Path_2"></path>
                            </g>
                        </g>
                        <g id="Group" transform="translate(34.685442, 13.047327)">
                            <path d="M11.2482082,13.1830845 L4.52792507,13.1830845 L2.91405762,17.9484316 L0.0676129603,17.9484316 L6.43295652,0.317875273 L9.39031269,0.317875273 L15.7556562,17.9484316 L12.8606701,17.9484316 L11.2482082,13.1830845 Z M5.2239331,10.9841205 L10.5508656,10.9841205 L7.92486675,3.25031468 L7.85138007,3.25031468 L5.2239331,10.9841205 Z" id="Shape"></path>
                            <path d="M29.5026346,11.5220811 C29.5026346,15.5165421 27.3646777,18.0829111 24.1383341,18.0829111 C22.4706653,18.1701476 20.8998125,17.2966642 20.0939685,15.8340142 L20.0329189,15.8340142 L20.0329189,22.2007492 L17.3944405,22.2007492 L17.3944405,5.09433913 L19.9483865,5.09433913 L19.9483865,7.23229609 L19.9969139,7.23229609 C20.8385583,5.77881576 22.411105,4.90570841 24.0898068,4.95984544 C27.3521412,4.95985964 29.5026346,7.53870829 29.5026346,11.5220811 Z M26.7906695,11.5220811 C26.7906695,8.91966442 25.4457752,7.20872811 23.3937846,7.20872811 C21.3778416,7.20872811 20.021859,8.95569788 20.021859,11.5220811 C20.021859,14.1120322 21.3778416,15.8465223 23.3937846,15.8465223 C25.4457894,15.8465223 26.7906695,14.1480799 26.7906695,11.5220811 Z" id="Shape"></path>
                            <path d="M43.6502971,11.5220811 C43.6502971,15.5165421 41.5123402,18.0829111 38.2859966,18.0829111 C36.6183278,18.1701476 35.047475,17.2966642 34.2416311,15.8340142 L34.1805815,15.8340142 L34.1805815,22.2007492 L31.542103,22.2007492 L31.542103,5.09433913 L34.0959923,5.09433913 L34.0959923,7.23229609 L34.1445196,7.23229609 C34.9861701,5.77881664 36.5587229,4.90571443 38.2374267,4.95985964 C41.4998605,4.95985964 43.6502971,7.53870829 43.6502971,11.5220811 Z M40.938332,11.5220811 C40.938332,8.91966442 39.5934377,7.20872811 37.5414471,7.20872811 C35.5255041,7.20872811 34.1695215,8.95569788 34.1695215,11.5220811 C34.1695215,14.1120322 35.5255041,15.8465223 37.5414471,15.8465223 C39.5934519,15.8465223 40.9383462,14.1480799 40.9383462,11.5220811 L40.938332,11.5220811 Z" id="Shape"></path>
                            <path d="M53.0007389,13.0361111 C53.1962396,14.7844723 54.8946963,15.9324177 57.2156459,15.9324177 C59.4395692,15.9324177 61.0395656,14.7844155 61.0395656,13.2079728 C61.0395656,11.8395106 60.0745702,11.0201256 57.7896541,10.4585828 L55.504738,9.90814262 C52.2673061,9.12616824 50.7643502,7.61212398 50.7643502,5.15527514 C50.7643502,2.11332979 53.4153083,0.0239001565 57.1795982,0.0239001565 C60.9050435,0.0239001565 63.4589754,2.11332979 63.5449418,5.15527514 L60.8814755,5.15527514 C60.7220367,3.39582569 59.2676081,2.33378983 57.1421308,2.33378983 C55.0166535,2.33378983 53.5622391,3.40831957 53.5622391,4.97226832 C53.5622391,6.21871657 54.4911868,6.95216361 56.7636233,7.51363536 L58.7060796,7.9905889 C62.3234103,8.84604996 63.8263662,10.2991156 63.8263662,12.8779359 C63.8263662,16.1763747 61.198976,18.2422364 57.0201168,18.2422364 C53.1102307,18.2422364 50.470375,16.2249021 50.2998337,13.0359833 L53.0007389,13.0361111 Z" id="Path"></path>
                            <path d="M69.5206753,2.05239377 L69.5206753,5.09433913 L71.9650445,5.09433913 L71.9650445,7.18376876 L69.5206753,7.18376876 L69.5206753,14.2700797 C69.5206753,15.3709459 70.0101085,15.8839471 71.0846241,15.8839471 C71.3748105,15.8788871 71.6645273,15.8585088 71.9525648,15.8228975 L71.9525648,17.8998475 C71.4694613,17.9901151 70.9784273,18.0309969 70.4870479,18.0218615 C67.8846312,18.0218615 66.8697171,17.0443864 66.8697171,14.5514899 L66.8697171,7.18376876 L65.0007476,7.18376876 L65.0007476,5.09433913 L66.8696887,5.09433913 L66.8696887,2.05239377 L69.5206753,2.05239377 Z" id="Path"></path>
                            <path d="M73.3806995,11.5220811 C73.3806995,7.47771548 75.7626703,4.93629165 79.4770699,4.93629165 C83.2039349,4.93629165 85.5748174,7.47765869 85.5748174,11.5220811 C85.5748174,15.5775491 83.2164146,18.1078705 79.4770699,18.1078705 C75.7390455,18.1078705 73.3806995,15.5775349 73.3806995,11.5220811 Z M82.8864202,11.5220811 C82.8864202,8.74773171 81.6150126,7.11029627 79.4770557,7.11029627 C77.3390987,7.11029627 76.0690825,8.76021138 76.0690825,11.5220811 C76.0690825,14.3075187 77.3390987,15.9324887 79.4770557,15.9324887 C81.6150126,15.9324887 82.8863634,14.3075187 82.8863634,11.5220811 L82.8864202,11.5220811 Z" id="Shape"></path>
                            <path d="M87.7501566,5.09433913 L90.2666211,5.09433913 L90.2666211,7.28218639 L90.3276707,7.28218639 C90.6786009,5.87376987 91.9690993,4.90444869 93.4195206,4.95983124 C93.7235817,4.95876959 94.0268039,4.99179106 94.3235089,5.05827727 L94.3235089,7.52621442 C93.9396503,7.40891871 93.5392198,7.35506441 93.1380109,7.36677558 C92.3623235,7.33530727 91.6116302,7.64444439 91.0830409,8.21301669 C90.5544515,8.78158899 90.3007756,9.55279241 90.3886209,10.3241317 L90.3886209,17.9484032 L87.7501424,17.9484032 L87.7501566,5.09433913 Z" id="Path"></path>
                            <path d="M106.488465,14.173025 C106.133526,16.5064685 103.861075,18.1078563 100.953623,18.1078563 C97.2142785,18.1078563 94.8933147,15.6024801 94.8933147,11.5830739 C94.8933147,7.55118796 97.2267581,4.93627745 100.842712,4.93627745 C104.399035,4.93627745 106.635438,7.37925525 106.635438,11.2766617 L106.635438,12.1806501 L97.5567525,12.1806501 L97.5567525,12.3400889 C97.4719893,13.2970508 97.8024297,14.2443103 98.4640204,14.9409153 C99.1256112,15.6375203 100.054586,16.0163301 101.014644,15.9809876 C102.295042,16.1009566 103.502207,15.3657179 103.983103,14.1730108 L106.488465,14.173025 Z M97.5692072,10.3366398 L103.995569,10.3366256 C104.043451,9.47673135 103.730438,8.63584495 103.131944,8.01655848 C102.53345,7.397272 101.703739,7.05573555 100.842712,7.07423442 C99.9748729,7.06905547 99.1409197,7.41075206 98.5262138,8.02337572 C97.9115079,8.63599939 97.5669837,9.46878841 97.5692072,10.3366398 L97.5692072,10.3366398 Z" id="Shape"></path>
                        </g>
                    </g>
                </g>
                <g id="_Group_4" transform="translate(50.634797, 12.031824)">
                    <g id="Group">
                        <path d="M3.06924379,0.498836094 C4.18935708,0.418455326 5.28648327,0.844614533 6.05864573,1.66001625 C6.8308082,2.47541797 7.19661677,3.59411437 7.05538509,4.70819176 C7.05538509,7.41460568 5.59265089,8.97030564 3.06924379,8.97030564 L0.00928170738,8.97030564 L0.00928170738,0.498836094 L3.06924379,0.498836094 Z M1.32504255,7.77225695 L2.92227043,7.77225695 C3.72276122,7.82010565 4.50220073,7.50471632 5.04416782,6.91366077 C5.58613492,6.32260522 5.8329302,5.51880893 5.71602787,4.72545602 C5.824425,3.93539546 5.5740756,3.13823206 5.03345229,2.55199656 C4.49282897,1.96576106 3.71850723,1.65180221 2.92227043,1.69599034 L1.32504255,1.69599034 L1.32504255,7.77225695 Z" id="Shape"></path>
                        <path d="M8.54168727,5.77088072 C8.43206367,4.62497271 8.98153354,3.51598102 9.95965072,2.90901374 C10.9377679,2.30204646 12.1754188,2.30204646 13.153536,2.90901374 C14.1316531,3.51598102 14.681123,4.62497271 14.5714994,5.77088072 C14.6832087,6.9180201 14.1342404,8.02916272 13.1552559,8.63743668 C12.1762715,9.24571063 10.9369152,9.24571063 9.95793072,8.63743668 C8.97894629,8.02916272 8.42997795,6.9180201 8.54168727,5.77088072 Z M13.2737411,5.77088072 C13.2737411,4.38509741 12.6512056,3.57469947 11.5586733,3.57469947 C10.4619669,3.57469947 9.84502523,4.38509741 9.84502523,5.77089491 C9.84502523,7.16778073 10.4620095,7.97193173 11.5586733,7.97193173 C12.6512339,7.97191753 13.2737553,7.16221528 13.2737553,5.77088072 L13.2737411,5.77088072 Z" id="Shape"></path>
                        <polygon id="Path" points="22.5867581 8.97017786 21.2779257 8.97017786 19.9566136 4.26167783 19.8567904 4.26167783 18.5410153 8.97017786 17.2446484 8.97017786 15.4824304 2.57710643 16.7621578 2.57710643 17.9073915 7.45539533 18.0016776 7.45539533 19.3160613 2.57710643 20.5264619 2.57710643 21.8408455 7.45539533 21.9406687 7.45539533 23.0803512 2.57710643 24.3420476 2.57710643"></polygon>
                        <path d="M25.8242041,2.57710643 L27.0387504,2.57710643 L27.0387504,3.592702 L27.1330365,3.592702 C27.4609082,2.84495507 28.2270494,2.38755093 29.0408365,2.45370105 C29.670949,2.40632624 30.2884147,2.6480516 30.7188923,3.11062607 C31.14937,3.57320054 31.3461447,4.20642619 31.2536573,4.83151195 L31.2536573,8.97010688 L29.9919609,8.97010688 L29.9919609,5.14834518 C29.9919609,4.12096561 29.5455179,3.61003725 28.6124103,3.61003725 C28.1850146,3.59013099 27.7702384,3.75786611 27.4768233,4.06926765 C27.1834082,4.38066918 27.0406174,4.80467996 27.0858864,5.23013744 L27.0858864,8.97017786 L25.8241899,8.97017786 L25.8242041,2.57710643 Z" id="Path"></path>
                        <polygon id="Path" points="33.2640632 0.0814272068 34.5257597 0.0814272068 34.5257597 8.97016367 33.2640632 8.97016367"></polygon>
                        <path d="M36.2796579,5.77088072 C36.1701185,4.62489775 36.719675,3.51587799 37.6978648,2.90890135 C38.6760545,2.30192471 39.913769,2.30192471 40.8919588,2.90890135 C41.8701485,3.51587799 42.4197051,4.62489775 42.3101657,5.77088072 C42.4217331,6.91806116 41.8726642,8.02917239 40.8936312,8.63741956 C39.9145981,9.24566672 38.6752254,9.24566672 37.6961924,8.63741956 C36.7171593,8.02917239 36.1680904,6.91806116 36.2796579,5.77088072 L36.2796579,5.77088072 Z M41.0117117,5.77088072 C41.0117117,4.38509741 40.3891761,3.57469947 39.2966439,3.57469947 C38.1999375,3.57469947 37.5829958,4.38509741 37.5829958,5.77089491 C37.5829958,7.16778073 38.1999801,7.97193173 39.2966439,7.97193173 C40.3891903,7.97191753 41.0117259,7.16221528 41.0117259,5.77088072 L41.0117117,5.77088072 Z" id="Shape"></path>
                        <path d="M43.6384204,7.16221528 C43.6384204,6.01143034 44.4952728,5.34800576 46.0162313,5.25371962 L47.7479529,5.15389643 L47.7479529,4.60207904 C47.7479529,3.92685628 47.3015099,3.54558023 46.4391204,3.54558023 C45.7347926,3.54558023 45.2467508,3.80416078 45.1067058,4.25615497 L43.8852169,4.25615497 C44.0141594,3.15805725 45.0470902,2.45372945 46.4973447,2.45372945 C48.1001239,2.45372945 49.0041122,3.25163351 49.0041122,4.60207904 L49.0041122,8.97019206 L47.7895518,8.97019206 L47.7895518,8.07175493 L47.6897286,8.07175493 C47.2772159,8.72786254 46.543634,9.11132061 45.7694489,9.07552392 C45.2267267,9.13197608 44.685451,8.95620838 44.2794352,8.59167382 C43.8734194,8.22713926 43.6405587,7.70786142 43.6384204,7.16221528 L43.6384204,7.16221528 Z M47.7479529,6.61593495 L47.7479529,6.08145281 L46.1867726,6.181276 C45.3063522,6.24019596 44.9070452,6.53967974 44.9070452,7.10328112 C44.9070452,7.67866649 45.4061754,8.01350225 46.0925433,8.01350225 C46.4988583,8.05463245 46.9044694,7.9291048 47.2165237,7.66565525 C47.5285781,7.40220569 47.720355,7.02339283 47.7479529,6.61593495 Z" id="Shape"></path>
                        <path d="M50.6623329,5.77088072 C50.6623329,3.75077787 51.700815,2.4710505 53.3160596,2.4710505 C54.1316777,2.43346969 54.8955796,2.87050351 55.2765468,3.59265941 L55.370833,3.59265941 L55.370833,0.0814272068 L56.6325294,0.0814272068 L56.6325294,8.97016367 L55.4235202,8.97016367 L55.4235202,7.96010515 L55.323697,7.96010515 C54.9139323,8.67626945 54.140619,9.10591594 53.3160738,9.07552392 C51.6897267,9.07559491 50.6623329,7.79583913 50.6623329,5.77088072 Z M51.9656709,5.77088072 C51.9656709,7.1268633 52.604846,7.94281249 53.6738245,7.94281249 C54.7372233,7.94281249 55.3944436,7.11509351 55.3944436,5.77643197 C55.3944436,4.44401737 54.7303233,3.60450019 53.6738245,3.60450019 C52.6117318,3.60450019 51.9656283,4.42598644 51.9656283,5.77088072 L51.9656709,5.77088072 Z" id="Shape"></path>
                        <path d="M61.8526393,5.77088072 C61.7430157,4.62497271 62.2924856,3.51598102 63.2706027,2.90901374 C64.2487199,2.30204646 65.4863708,2.30204646 66.464488,2.90901374 C67.4426051,3.51598102 67.992075,4.62497271 67.8824514,5.77088072 C67.9941607,6.9180201 67.4451924,8.02916272 66.466208,8.63743668 C65.4872235,9.24571063 64.2478672,9.24571063 63.2688827,8.63743668 C62.2898983,8.02916272 61.74093,6.9180201 61.8526393,5.77088072 L61.8526393,5.77088072 Z M66.5846931,5.77088072 C66.5846931,4.38509741 65.9621576,3.57469947 64.8696253,3.57469947 C63.7729189,3.57469947 63.1559772,4.38509741 63.1559772,5.77089491 C63.1559772,7.16778073 63.7729615,7.97193173 64.8696253,7.97193173 C65.9621718,7.97191753 66.5846931,7.16221528 66.5846931,5.77088072 Z" id="Shape"></path>
                        <path d="M69.5753426,2.57710643 L70.7899031,2.57710643 L70.7899031,3.592702 L70.8841892,3.592702 C71.2120609,2.84495507 71.9782021,2.38755093 72.7919892,2.45370105 C73.4221017,2.40632624 74.0395674,2.6480516 74.470045,3.11062607 C74.9005227,3.57320054 75.0972974,4.20642619 75.00481,4.83151195 L75.00481,8.97010688 L73.7431136,8.97010688 L73.7431136,5.14834518 C73.7431136,4.12096561 73.2966706,3.61003725 72.363563,3.61003725 C71.9361673,3.59013099 71.5213911,3.75786611 71.227976,4.06926765 C70.9345609,4.38066918 70.7917701,4.80467996 70.8370391,5.23013744 L70.8370391,8.97017786 L69.5753426,8.97017786 L69.5753426,2.57710643 Z" id="Path"></path>
                        <path d="M82.1341112,0.985429795 L82.1341112,2.60622567 L83.519213,2.60622567 L83.519213,3.66897141 L82.1341112,3.66897141 L82.1341112,6.95632196 C82.1341112,7.62599347 82.410027,7.91923031 83.0380996,7.91923031 C83.1988951,7.9187157 83.3595292,7.90899337 83.519213,7.89011107 L83.519213,8.94105863 C83.2926331,8.98159374 83.063067,9.0031589 82.832902,9.00552984 C81.4297834,9.00552984 80.8710234,8.51193673 80.8710234,7.27935952 L80.8710234,3.66891462 L79.8561235,3.66891462 L79.8561235,2.60616888 L80.8710234,2.60616888 L80.8710234,0.985429795 L82.1341112,0.985429795 Z" id="Path"></path>
                        <path d="M85.2426006,0.0814272068 L86.4932088,0.0814272068 L86.4932088,3.604486 L86.593032,3.604486 C86.9366529,2.85019486 87.7162028,2.39220784 88.5423599,2.45925231 C89.1688943,2.42516005 89.7780014,2.6722071 90.203774,3.13310338 C90.6295466,3.59399966 90.8276379,4.22074001 90.7440924,4.84261446 L90.7440924,8.97017786 L89.4811323,8.97017786 L89.4811323,5.15386803 C89.4811323,4.1327212 89.0055134,3.61556011 88.1140614,3.61556011 C87.6751133,3.57956025 87.2426552,3.73913722 86.9323007,4.05162959 C86.6219462,4.36412197 86.4653416,4.79766536 86.5043539,5.23635598 L86.5043539,8.97014947 L85.2426574,8.97014947 L85.2426006,0.0814272068 Z" id="Path"></path>
                        <path d="M98.1008388,7.24400755 C97.7470451,8.44992096 96.5800634,9.22907507 95.3306494,9.09356904 C94.4781754,9.11607249 93.6589004,8.7627238 93.0901976,8.1272748 C92.5214948,7.4918258 92.2608574,6.63851753 92.3774389,5.79375302 C92.2639539,4.94664081 92.5236147,4.09196525 93.0891506,3.4511478 C93.6546866,2.81033035 94.4704492,2.44642728 95.3250981,2.45371525 C97.1039557,2.45371525 98.177094,3.6690282 98.177094,5.67656618 L98.177094,6.11681898 L93.6627033,6.11681898 L93.6627033,6.18752293 C93.6227542,6.66192111 93.7847752,7.13116198 94.1089202,7.47984456 C94.4330653,7.82852715 94.8892578,8.02429798 95.3653057,8.01901091 C95.9825765,8.09311474 96.5834475,7.78692737 96.8862783,7.24396495 L98.1008388,7.24400755 Z M93.6626749,5.18369715 L96.891787,5.18369715 C96.9239487,4.74981969 96.7713893,4.32253587 96.4717046,4.00714231 C96.1720199,3.69174875 95.7530806,3.51757724 95.3181271,3.5275493 C94.8772809,3.5220107 94.452881,3.69474178 94.1411992,4.00655991 C93.8295174,4.31837804 93.656972,4.74285336 93.6627033,5.18369715 L93.6626749,5.18369715 Z" id="Shape"></path>
                    </g>
                </g>
            </g>
        </g>
    </g>
</svg>