<svg width="284" height="47" viewBox="0 0 284 47" fill="none" xmlns="http://www.w3.org/2000/svg">
<path fill-rule="evenodd" clip-rule="evenodd" d="M121.024 26.1843H107.164C107.412 22.52 110.508 18.9357 114.728 19.2192C118.152 19.4491 121.261 22.827 121.024 26.1843ZM126.461 37.8668C125.44 36.9818 124.437 36.1124 123.434 35.2441C123.332 35.2993 123.258 35.3365 123.202 35.3645L123.202 35.3646C123.117 35.4074 123.074 35.4286 123.041 35.4596C120.353 37.9464 117.221 39.0557 113.542 38.4525C110.365 37.9316 107.702 35.5349 107.245 32.1087H130.319C130.349 31.8399 130.385 31.5851 130.42 31.3397L130.42 31.3391L130.42 31.3376V31.3375V31.3374C130.492 30.8278 130.558 30.3591 130.552 29.891C130.512 26.15 129.847 22.5449 127.991 19.2312C126.582 16.7154 124.624 14.7517 122.011 13.4398C118.665 11.7603 115.151 11.3916 111.474 11.9254C107.281 12.534 103.932 14.5976 101.36 17.8172C99.0689 20.6872 97.9193 24.0857 97.667 27.7272C97.4519 30.8324 97.9911 33.8358 99.3041 36.6926C100.939 40.2494 103.541 42.8961 107.11 44.4911C110.497 46.0048 114.067 46.5132 117.811 46.0153C120.816 45.6157 123.526 44.6203 125.927 42.8325C127.011 42.0253 127.992 41.0766 128.823 39.9131C128.021 39.2179 127.236 38.5378 126.461 37.8668ZM25.2852 23.4114L31.0114 17.2135C29.7167 15.8119 28.3423 14.6663 26.7552 13.7936C24.8127 12.7258 22.7241 12.1467 20.5035 11.8794C17.6484 11.5358 14.8689 11.6922 12.1147 12.5004C8.72116 13.4962 5.99828 15.4379 3.78429 18.1443C1.42295 21.0304 0.329818 24.3861 0.0639981 28.0234C-0.128378 30.6583 0.3727 33.1994 1.37296 35.6606C3.22944 40.2271 6.52731 43.3219 11.1301 45.0494C14.0373 46.1405 17.0473 46.4564 20.1571 46.0033C21.9162 45.7472 23.6227 45.4003 25.2541 44.692C27.2493 43.8253 28.8467 42.422 30.4435 41.0191C30.5807 40.8986 30.7179 40.7781 30.8553 40.6579C30.9491 40.5759 30.979 40.4224 31.0159 40.2336L31.0159 40.2336C31.0354 40.1338 31.0568 40.0242 31.0906 39.91L25.5064 34.6298C25.418 34.6986 25.3267 34.7677 25.2342 34.8377C25.031 34.9917 24.8216 35.1503 24.6223 35.3205C22.3834 37.231 19.8726 38.3501 16.8372 37.985C14.4389 37.6965 12.4843 36.5874 11.169 34.6197C9.98345 32.8467 9.40324 30.8501 9.48971 28.6535C9.60106 25.8197 10.5613 23.4114 12.7392 21.5544C14.1927 20.3151 15.9765 19.7189 17.8543 19.7619C19.5831 19.8017 21.2602 20.3111 22.6881 21.3691C23.2889 21.8144 23.8727 22.2824 24.4671 22.7589L24.4672 22.759L24.4672 22.759C24.7368 22.9751 25.0086 23.193 25.2852 23.4114ZM83.6632 45.4495H74.2422V12.4541H83.617V18.2833L83.8207 18.3589C83.873 18.2751 83.9261 18.1918 83.9791 18.1085L83.9792 18.1083C84.0936 17.9286 84.208 17.7489 84.3152 17.565C85.5092 15.5154 86.8864 13.6486 89.1513 12.6181C90.7515 11.8899 92.4101 11.5625 94.2465 11.7651V21.4488C93.9208 21.4861 93.5937 21.516 93.2667 21.5458L93.2666 21.5458C92.5467 21.6115 91.8272 21.6772 91.1246 21.8228C88.9365 22.2764 87.1165 23.3717 85.8153 25.1998C84.7577 26.686 84.1628 28.3744 83.9209 30.1634C83.7601 31.3536 83.6786 32.5624 83.6689 33.7634C83.6474 36.4026 83.6529 39.0419 83.6584 41.6814V41.6837C83.6605 42.7156 83.6627 43.7475 83.6632 44.7794V45.4495ZM49.9527 30.9255C52.3382 30.8007 54.6401 31.0768 56.886 32.0869C56.9737 33.7764 57.0542 35.4362 55.8332 36.9243C54.8376 38.1372 53.608 38.7958 52.1316 39.2088C50.2865 39.725 48.5167 39.7304 46.7451 38.9372C45.2146 38.2522 44.4171 37.0572 44.3956 35.465C44.374 33.8794 45.1786 32.6286 46.5799 31.8401C47.6136 31.2588 48.747 30.9886 49.9527 30.9255ZM51.7445 20.1454C55.0298 20.5999 57.2599 23.2299 56.7545 26.4394C56.7115 26.43 56.6688 26.4207 56.6263 26.4113C56.5232 26.3887 56.4213 26.3664 56.3193 26.3449C55.8111 26.2386 55.3042 26.1145 54.7973 25.9904C53.6655 25.7132 52.5337 25.4361 51.3879 25.3575C48.7252 25.1746 46.0329 25.1298 43.4036 25.7992C40.3102 26.5869 37.7195 28.0689 36.2397 31.0216C35.0921 33.3111 34.9902 35.7629 35.4683 38.1891C36.2162 41.9851 38.7318 44.2519 42.3597 45.4566C44.1358 46.0464 45.9507 46.0056 47.7674 45.9648C47.9139 45.9615 48.0603 45.9582 48.2068 45.9552C50.635 45.9062 52.8291 45.136 54.7772 43.7021C55.2089 43.3845 55.6263 43.0478 56.1079 42.6592C56.3461 42.467 56.6 42.2622 56.8791 42.0407V45.4203H65.9279C65.946 45.2653 65.968 45.1161 65.9894 44.9708C66.0334 44.6725 66.075 44.3906 66.0753 44.1086C66.0762 43.2124 66.0773 42.3161 66.0785 41.4198C66.0848 36.4943 66.0911 31.5687 66.058 26.6435C66.0452 24.7414 65.8952 22.8328 65.3923 20.9855C64.4517 17.5309 62.4533 14.8919 59.1019 13.406C57.0462 12.4944 54.8443 12.0502 52.608 11.966C51.3852 11.9199 50.1574 11.9968 48.9298 12.0736C48.4278 12.1051 47.9259 12.1365 47.4243 12.1595C45.3352 12.2551 43.3055 12.6717 41.3313 13.3394C41.1538 13.3994 40.9752 13.4572 40.7963 13.5152C39.8751 13.8133 38.9486 14.1133 38.1564 14.717C38.4446 15.5588 38.706 16.4006 38.9655 17.2358C39.4432 18.7736 39.9141 20.2894 40.5322 21.7437C44.2676 20.5199 47.8839 19.6116 51.7445 20.1454Z" fill="white"/>
<path fill-rule="evenodd" clip-rule="evenodd" d="M260.085 40.1387C256.871 37.3011 255.675 33.6289 255.629 29.8537C255.656 26.2891 256.402 23.3049 258.403 20.7469C260.633 17.8951 263.6 16.4067 267.262 16.1577C273.805 15.7123 279.324 20.586 280.64 26.2464C282.368 33.6819 278.315 40.7564 271.453 42.7136C267.213 43.9223 263.391 43.0586 260.085 40.1387ZM280.808 0.394531V20.3086C280.691 20.1841 280.589 20.0774 280.498 19.9817L280.497 19.9809L280.496 19.9799C280.323 19.7987 280.188 19.6574 280.058 19.5114C279.838 19.262 279.624 19.006 279.41 18.75C278.974 18.2277 278.537 17.7054 278.046 17.2391C274.392 13.7671 269.996 12.5274 265.071 13.4156C260.684 14.2069 257.254 16.5815 254.881 20.3339C252.109 24.7149 251.673 29.4958 252.852 34.412C254.81 42.5736 262.778 47.2104 270.063 45.9939C273.769 45.3752 276.726 43.6299 279.094 40.8078C279.447 40.3872 279.789 39.9581 280.131 39.529L280.132 39.5288L280.132 39.5285C280.293 39.3264 280.454 39.1242 280.616 38.9229L280.846 38.9855V45.4622H283.883V0.394531H280.808ZM141.927 30.5327C141.896 30.2437 141.864 29.9548 141.829 29.6665C141.913 25.7236 143.282 22.3429 146.168 19.6329C149.06 16.9175 152.563 15.7027 156.5 16.2219C160.387 16.7346 163.463 18.798 165.309 22.2059C168.21 27.5597 168.149 33.0137 164.798 38.1717C162.799 41.2499 159.741 42.7992 156.015 43.1669C149.292 43.8311 143.21 38.7027 142.172 32.4429C142.067 31.81 141.997 31.1713 141.927 30.5327ZM142.056 45.4301V39.186L142.263 39.1283C142.356 39.2404 142.449 39.3524 142.542 39.4644L142.542 39.4647C142.79 39.7629 143.037 40.0609 143.281 40.3617C146.926 44.8557 151.603 46.7915 157.406 45.9705C161.554 45.3837 164.824 43.3147 167.31 40.0627C170.375 36.053 171.1 31.4604 170.386 26.5827C169.807 22.6229 168.075 19.2614 164.905 16.7248C160.771 13.417 156.129 12.3194 150.953 13.7685C147.542 14.7235 145.02 16.8763 142.935 19.6151C142.694 19.9317 142.453 20.2478 142.211 20.5642C142.015 19.3613 142.015 18.2752 142.015 17.1889V17.1889C142.015 16.0561 142.015 14.9236 142.014 13.7908V10.5097V7.11143C142.014 6.77694 142.017 6.44238 142.019 6.10782C142.025 5.34854 142.03 4.58923 142.007 3.83061C141.997 3.48331 142.008 3.13412 142.019 2.78319V2.78319C142.044 2.01463 142.069 1.23773 141.868 0.454102H138.953V45.4301H142.056ZM202.176 30.1106L201.703 29.9983C201.368 29.9187 201.082 29.8508 200.796 29.7827C198.737 29.2918 196.652 29.0036 194.543 28.7803C192.088 28.5207 189.679 28.5545 187.276 29.0857C185.102 29.5665 183.203 30.5426 181.949 32.4162C179.73 35.7313 180.88 39.9739 184.589 41.9456C186.851 43.1487 189.257 43.5556 191.847 43.1855C194.025 42.8743 196.043 42.2519 197.853 41.0302C200.018 39.5684 201.582 37.654 201.908 35.0036C202.044 33.8936 202.08 32.7716 202.117 31.6438V31.6437C202.133 31.1336 202.15 30.6224 202.176 30.1106ZM202.059 27.0927C202.096 23.4694 201.517 20.1136 198.105 17.9221C196.725 17.0356 195.192 16.5924 193.576 16.4158C189.523 15.9732 185.723 16.8731 182.081 18.5835C181.995 18.6237 181.911 18.6678 181.801 18.7258L181.801 18.7259C181.736 18.7601 181.661 18.7992 181.572 18.8452L180.42 16.1489C182.678 14.9891 184.945 14.2658 187.292 13.8442C189.737 13.4054 192.211 13.2349 194.695 13.5892C199.853 14.3256 203.873 17.2143 204.747 22.6913C204.924 23.802 205.054 24.9331 205.059 26.0554C205.083 30.9957 205.079 35.936 205.074 40.8763C205.073 42.1116 205.072 43.3469 205.072 44.5822C205.072 44.7649 205.056 44.9475 205.04 45.1467L205.04 45.1469C205.032 45.24 205.024 45.3369 205.017 45.4391H202.088V40.4303C201.97 40.5413 201.873 40.6285 201.791 40.7022C201.652 40.8273 201.557 40.9134 201.475 41.011C199.111 43.8256 196.073 45.4185 192.438 45.9835C188.856 46.5402 185.49 45.9903 182.317 44.232C179.367 42.5974 177.067 39.3498 177.655 34.894C178.208 30.7096 180.779 28.3277 184.551 26.9609C187.212 25.9967 189.996 25.8612 192.803 25.9254C195.837 25.9951 198.819 26.3886 201.749 27.175C201.789 27.1859 201.837 27.1684 201.908 27.1425C201.95 27.1274 201.999 27.1095 202.059 27.0927ZM240.215 45.4518H243.273C243.28 45.3091 243.288 45.1793 243.295 45.058C243.309 44.8254 243.321 44.624 243.321 44.4227C243.321 42.9539 243.323 41.4851 243.324 40.0162C243.328 35.6649 243.333 31.3137 243.292 26.9628C243.278 25.4529 243.154 23.9158 242.838 22.4425C242.149 19.2376 240.491 16.6315 237.553 14.9446C234.765 13.3439 231.789 12.9372 228.602 13.304C224.838 13.7372 221.966 15.5009 219.794 18.5014C219.673 18.668 219.551 18.8336 219.429 18.9991C219.376 19.0714 219.323 19.1437 219.269 19.216L219.071 19.1703V13.9396C218.982 13.9356 218.894 13.9316 218.806 13.9276C217.789 13.8808 216.875 13.8388 215.984 13.9581V45.4122H219.006V44.2815C219.007 42.7451 219.006 41.2088 219.005 39.6724C219.004 35.7011 219.002 31.73 219.016 27.7587C219.023 26.1283 219.158 24.4732 219.784 22.9687C221.954 17.747 227.035 15.1287 232.412 16.1925C235.742 16.8515 238.065 18.7482 239.32 21.9141C240.009 23.6524 240.184 25.4716 240.2 27.292C240.236 31.422 240.228 35.5522 240.221 39.6825C240.218 41.2944 240.216 42.9063 240.215 44.5182V45.4518Z" fill="white" fill-opacity="0.8"/>
</svg>
