<svg width="580" height="75" viewBox="0 0 580 75" fill="none" xmlns="http://www.w3.org/2000/svg">
<path d="M117.41 55.61C116.44 56.41 115.46 57.2 114.31 57.82C112.27 58.97 109.44 60.03 105.9 60.03C95.73 60.03 86.88 51.27 86.88 39.24C86.88 27.21 95.73 18.45 105.9 18.45C109 18.45 111.56 19.25 113.33 20.22C114.39 20.75 115.28 21.37 116.07 21.99V3.84998H128.02V59.59H119.17L117.41 55.61ZM116.52 39.24C116.52 33.49 112.63 29.51 107.67 29.51C102.72 29.51 98.82 33.49 98.82 39.24C98.82 44.99 102.71 48.97 107.67 48.97C112.63 48.97 116.52 44.99 116.52 39.24Z" fill="white"/>
<path d="M142.62 1.18994C146.16 1.18994 149.26 4.28994 149.26 7.82994C149.26 11.3699 146.16 14.4699 142.62 14.4699C139.08 14.4699 135.98 11.3699 135.98 7.82994C135.99 4.28994 139.09 1.18994 142.62 1.18994ZM136.43 18.8899H148.37V59.5899H136.43V18.8899Z" fill="white"/>
<path d="M168.28 60.03C168.63 60.83 169.17 61.45 169.78 62.07C170.84 63.04 172.61 64.02 175.35 64.02C180.3 64.02 183.76 60.57 183.76 56.06V53.85C183.14 54.47 182.26 55.09 181.28 55.62C179.6 56.59 177.12 57.39 173.58 57.39C163.32 57.39 155 48.9 155 37.92C155 26.95 163.32 18.46 173.58 18.46C177.12 18.46 179.95 19.61 181.98 20.67C183.13 21.29 184.1 22.08 185.08 22.88L186.85 18.9H195.7V56.06C195.7 66.68 187.65 74.64 175.35 74.64C167.83 74.64 163.05 71.28 160.22 67.83C158.54 65.79 157.21 63.5 156.33 60.93L168.28 60.03ZM175.36 46.32C180.31 46.32 183.77 42.87 183.77 37.91C183.77 32.96 180.32 29.51 175.36 29.51C170.4 29.51 166.95 32.96 166.95 37.91C166.96 42.87 170.41 46.32 175.36 46.32Z" fill="white"/>
<path d="M210.31 1.18994C213.85 1.18994 216.95 4.28994 216.95 7.82994C216.95 11.3699 213.85 14.4699 210.31 14.4699C206.77 14.4699 203.67 11.3699 203.67 7.82994C203.68 4.28994 206.78 1.18994 210.31 1.18994ZM204.12 18.8899H216.06V59.5899H204.12V18.8899Z" fill="white"/>
<path d="M228.01 29.9499H221.82V19.7699H224.92C228.19 19.7699 229.79 18.1799 229.79 14.8999V9.1499H239.96V18.8799H248.37V29.9399H239.96V43.2099C239.96 46.7499 242.17 48.9599 245.27 48.9599C246.24 48.9599 246.86 48.8699 247.48 48.7799L248.36 48.5199V59.1399C247.92 59.3199 247.39 59.4899 246.77 59.5799C245.62 59.8499 244.2 60.0199 242.61 60.0199C233.32 60.0199 228.01 54.7999 228.01 44.9799V29.9499Z" fill="white"/>
<path d="M279.33 55.6099C278.36 56.4099 277.21 57.1999 275.97 57.8199C273.85 58.9699 270.93 60.0299 267.39 60.0299C258.54 60.0299 253.68 55.2499 253.68 48.5299C253.68 40.4799 259.43 34.8199 278.01 34.8199C278.01 30.8399 275.8 28.6299 272.7 28.6299C270.49 28.6299 269.16 29.6899 268.36 30.6599C267.92 31.2799 267.56 31.8999 267.39 32.6099L255.45 31.7299C256.86 23.6799 262.44 18.0199 273.15 18.0199C282.88 18.0199 289.96 25.0999 289.96 34.8299V59.5999H281.11L279.33 55.6099ZM278 41.8899C267.74 41.8899 265.61 44.0999 265.61 47.1999C265.61 49.4099 267.38 51.1799 270.48 51.1799C274.99 51.1799 278 48.1699 278 43.6599V41.8899Z" fill="white"/>
<path d="M297.91 3.84998H309.85V59.59H297.91V3.84998Z" fill="white"/>
<path d="M338.77 18.59H347.62L349.39 22.57C350.19 21.77 351.07 20.98 352.13 20.36C353.9 19.3 356.47 18.15 359.56 18.15C363.72 18.15 366.64 19.48 368.5 20.81C369.56 21.61 370.45 22.49 371.07 23.46C372.04 22.49 373.11 21.6 374.34 20.81C376.46 19.48 379.47 18.15 383.01 18.15C391.86 18.15 397.61 23.9 397.61 34.96V59.29H385.67V36.28C385.67 31.77 383.01 29.2 379.92 29.2C376.82 29.2 374.17 31.77 374.17 36.28V59.29H362.23V36.28C362.23 31.77 359.57 29.2 356.48 29.2C353.38 29.2 350.73 31.77 350.73 36.28V59.29H338.79V18.59H338.77Z" fill="white"/>
<path d="M429.46 55.31C428.49 56.11 427.34 56.9 426.1 57.52C423.98 58.67 421.06 59.73 417.52 59.73C408.67 59.73 403.81 54.95 403.81 48.23C403.81 40.18 409.56 34.52 428.14 34.52C428.14 30.54 425.93 28.33 422.83 28.33C420.62 28.33 419.29 29.39 418.49 30.36C418.05 30.98 417.69 31.6 417.52 32.31L405.58 31.43C406.99 23.38 412.57 17.72 423.28 17.72C433.01 17.72 440.09 24.8 440.09 34.53V59.3H431.24L429.46 55.31ZM428.14 41.6C417.88 41.6 415.75 43.81 415.75 46.91C415.75 49.12 417.52 50.89 420.62 50.89C425.13 50.89 428.14 47.88 428.14 43.37V41.6Z" fill="white"/>
<path d="M450.7 29.65H444.51V19.48H447.61C450.88 19.48 452.48 17.89 452.48 14.61V8.85999H462.65V18.59H471.06V29.65H462.65V42.92C462.65 46.46 464.86 48.67 467.96 48.67C468.93 48.67 469.55 48.58 470.17 48.49L471.05 48.23V58.85C470.61 59.03 470.08 59.2 469.46 59.29C468.31 59.56 466.89 59.73 465.3 59.73C456.01 59.73 450.7 54.51 450.7 44.69V29.65Z" fill="white"/>
<path d="M482.55 29.65H476.36V19.48H479.46C482.73 19.48 484.33 17.89 484.33 14.61V8.85999H494.5V18.59H502.91V29.65H494.5V42.92C494.5 46.46 496.71 48.67 499.81 48.67C500.78 48.67 501.4 48.58 502.02 48.49L502.9 48.23V58.85C502.46 59.03 501.93 59.2 501.31 59.29C500.16 59.56 498.74 59.73 497.15 59.73C487.86 59.73 482.55 54.51 482.55 44.69V29.65Z" fill="white"/>
<path d="M547.59 47.35C545.47 53.99 539.1 60.18 528.57 60.18C517.6 60.18 508.22 50.89 508.22 38.95C508.22 27 517.51 17.71 529.01 17.71C540.07 17.71 548.92 26.12 548.92 38.95C548.92 39.92 548.74 40.81 548.66 41.6L548.48 42.93H520.6C521.57 46.03 524.49 49.12 529.01 49.12C531.22 49.12 532.81 48.5 533.79 47.79C534.41 47.44 534.85 46.99 535.2 46.46L547.59 47.35ZM537.41 35.4C536.44 31.86 533.52 28.76 529 28.76C524.49 28.76 521.57 31.86 520.59 35.4H537.41Z" fill="white"/>
<path d="M555.11 18.59H563.96L565.73 23.01C566.44 22.13 567.32 21.33 568.3 20.62C569.98 19.29 572.37 18.14 575.47 18.14C576.53 18.14 577.42 18.32 578.04 18.41L579.01 18.59V30.98L577.77 30.54C576.97 30.27 575.91 30.1 574.58 30.1C570.07 30.1 567.06 33.2 567.06 38.51V59.3H555.12V18.59H555.11Z" fill="white"/>
<path d="M45.2811 29.7128C45.3071 29.6132 45.333 29.5092 45.3634 29.4096C45.3634 29.4009 45.3677 29.3966 45.3677 29.3879C47.3299 21.7557 45.3201 13.3134 39.3468 7.33576C30.3457 -1.66531 15.7569 -1.66531 6.75581 7.33576C-2.24526 16.3368 -2.24526 30.9257 6.75581 39.9267C12.7637 45.9347 21.2623 47.9315 28.9249 45.9217C28.9769 45.9087 29.0289 45.8957 29.0809 45.8827C33.6637 44.7002 38.7404 45.9 42.3312 49.4909C45.1251 52.2848 46.4723 55.971 46.377 59.6312C46.3553 59.8868 46.3423 60.1423 46.338 60.4022C46.338 60.4065 46.338 60.4152 46.338 60.4239C46.2514 64.0711 47.5985 67.7486 50.3837 70.5338C55.7852 75.9353 64.5394 75.9353 69.9366 70.5338C75.3381 65.1323 75.3381 56.3782 69.9366 50.981C67.0734 48.1178 63.2659 46.7707 59.519 46.9439C59.4497 46.9483 59.3804 46.9526 59.3068 46.9569C55.5643 47.1259 51.7698 45.7787 48.911 42.9199C45.3244 39.3333 44.1159 34.2827 45.2811 29.7128ZM64.9595 55.9407C67.6148 58.5959 67.6148 62.9059 64.9595 65.5611C62.3043 68.2164 57.9943 68.2164 55.3391 65.5611C52.6838 62.9059 52.6838 58.5959 55.3391 55.9407C57.9943 53.2854 62.3043 53.2854 64.9595 55.9407ZM32.6674 33.2517C27.3569 38.5623 18.7413 38.5623 13.4265 33.2517C8.11593 27.9412 8.11593 19.3256 13.4265 14.0108C18.737 8.70022 27.3526 8.70022 32.6674 14.0108C37.9823 19.3213 37.978 27.9412 32.6674 33.2517Z" fill="white"/>
</svg>
