<svg width="36" height="32" viewBox="0 0 36 32" fill="none" xmlns="http://www.w3.org/2000/svg">
<path d="M14.5811 31.9992V16.7532H8.04715C8.04715 14.3112 8.50916 12.2652 9.43316 10.6152C10.3572 8.89922 12.0731 7.61222 14.5811 6.75422V0.220215C12.5351 0.484215 10.6211 1.11121 8.83914 2.10121C7.12314 3.02521 5.63815 4.21322 4.38415 5.66522C3.13015 7.11722 2.14015 8.80022 1.41415 10.7142C0.754152 12.6282 0.45716 14.6742 0.52316 16.8522V31.9992H14.5811ZM35.6681 31.9992V16.7532H29.1342C29.1342 14.3112 29.5961 12.2652 30.5201 10.6152C31.4441 8.89922 33.1601 7.61222 35.6681 6.75422V0.220215C33.6222 0.484215 31.7081 1.11121 29.9261 2.10121C28.2101 3.02521 26.7252 4.21322 25.4712 5.66522C24.2172 7.11722 23.2272 8.80022 22.5012 10.7142C21.8412 12.6282 21.5442 14.6742 21.6102 16.8522V31.9992H35.6681Z" fill="#010101"/>
</svg>
