<svg width="83" height="83" viewBox="0 0 83 83" fill="none" xmlns="http://www.w3.org/2000/svg">
<rect x="0.986328" y="0.986328" width="82.0137" height="82.0137" rx="16" fill="#2E2E2E"/>
<path fill-rule="evenodd" clip-rule="evenodd" d="M52.2569 19.6868C46.7894 14.2202 37.9245 14.2203 32.4581 19.6868C32.0676 20.0773 31.4344 20.0773 31.0439 19.6868C30.6533 19.2962 30.6533 18.6631 31.0439 18.2726C37.2914 12.025 47.4225 12.0251 53.671 18.2725C54.0616 18.663 54.0616 19.2962 53.6711 19.6867C53.2807 20.0773 52.6475 20.0773 52.2569 19.6868ZM48.7209 23.2228C45.2063 19.7082 39.5076 19.7084 35.9942 23.2227C35.6037 23.6133 34.9705 23.6133 34.58 23.2229C34.1894 22.8324 34.1893 22.1992 34.5798 21.8086C38.8744 17.513 45.8396 17.5131 50.1351 21.8086C50.5256 22.1991 50.5256 22.8322 50.1351 23.2228C49.7446 23.6133 49.1114 23.6133 48.7209 23.2228ZM42.357 25.3798C41.1635 25.3798 40.019 25.8539 39.1751 26.6978C38.7845 27.0883 38.1514 27.0883 37.7609 26.6978C37.3703 26.3072 37.3704 25.6741 37.7609 25.2835C38.9799 24.0646 40.6331 23.3798 42.357 23.3798C44.0808 23.3798 45.7341 24.0646 46.9531 25.2835C47.3436 25.6741 47.3436 26.3072 46.9531 26.6978C46.5626 27.0883 45.9294 27.0883 45.5389 26.6978C44.695 25.8539 43.5504 25.3798 42.357 25.3798Z" fill="#20DEB0"/>
<path fill-rule="evenodd" clip-rule="evenodd" d="M34.3721 32.6436C29.9538 32.6436 26.3721 36.2253 26.3721 40.6436V59.0834C26.3721 63.5017 29.9538 67.0834 34.3721 67.0834H49.6145C54.0327 67.0834 57.6145 63.5017 57.6145 59.0834V40.6436C57.6145 36.2253 54.0327 32.6436 49.6145 32.6436H34.3721ZM42.3572 61.2916C46.1975 61.2916 49.3107 58.1785 49.3107 54.3382C49.3107 50.4979 46.1975 47.3848 42.3572 47.3848C38.517 47.3848 35.4038 50.4979 35.4038 54.3382C35.4038 58.1785 38.517 61.2916 42.3572 61.2916Z" fill="#20DEB0"/>
</svg>
